# 3ds Max Wavefront OBJ Exporter v0.97b - (c)2007 guruware
# File Created: 12.08.2018 17:09:02

mtllib Hammerhead Shark.mtl

#
# object Hammerhead_Shark
#

v  -76.6175 32.7837 12.7341
v  -103.3775 37.4697 16.2010
v  -117.5062 35.4374 12.7584
v  -97.8651 49.4991 -26.0824
v  -142.5210 59.5627 -15.6102
v  -72.6211 69.2251 -22.8095
v  -83.3378 63.3758 21.3111
v  -106.8423 70.0953 12.0680
v  -136.5277 54.3572 15.9067
v  23.0862 71.3067 4.2075
v  -38.9024 79.6944 4.6313
v  -64.7845 78.7494 11.2456
v  -32.8842 48.6454 -19.9424
v  -69.5759 42.3091 -24.7779
v  -61.0859 29.8884 -6.1468
v  -120.4250 31.3765 3.2492
v  -101.8742 33.4509 -15.5618
v  -101.5590 46.9743 23.2185
v  -138.9594 44.5098 15.2330
v  -151.9401 37.4615 -2.2623
v  -135.8409 64.6602 3.8024
v  -78.4140 84.1621 -8.1174
v  -165.8954 57.4325 -0.2130
v  -163.0643 55.8091 16.1989
v  -141.7967 48.8222 33.1007
v  -153.2831 41.1299 16.2505
v  -172.1529 39.7153 -1.0278
v  -177.0080 43.7775 -2.5012
v  -167.3829 45.5058 -49.4762
v  -150.0663 42.0023 47.8984
v  -160.6459 40.9428 45.4064
v  -161.7039 52.1019 -49.7946
v  -145.0421 45.7671 -25.3650
v  -151.3119 41.5864 -19.8473
v  -150.3985 42.1824 -50.0867
v  -105.4559 43.0026 -24.2455
v  -138.4886 50.4465 -18.8914
v  -141.4411 49.2747 -50.2870
v  -144.8286 56.9164 -50.7813
v  -166.8848 40.2342 -18.2151
v  -168.1163 40.7143 16.7129
v  -166.0750 45.3156 48.2030
v  -163.7156 51.4649 43.5630
v  -175.5099 48.3585 6.6514
v  -173.8159 50.6635 -7.5444
v  -137.6341 42.6695 -16.2218
v  -68.5737 35.4998 -17.9778
v  -11.1945 35.9323 -7.1638
v  -68.2677 45.7599 19.5892
v  -65.9004 37.9664 16.0069
v  -8.8005 36.4184 1.6966
v  -67.4610 81.6979 -12.3998
v  -36.1372 80.1021 -6.8278
v  22.1950 73.8697 -6.1598
v  45.1762 57.3578 8.4564
v  -45.7437 122.9423 -2.7959
v  -85.2659 81.7305 3.4465
v  -0.4996 36.4246 6.1306
v  82.7758 64.1486 3.1128
v  92.3501 51.2993 4.2376
v  138.7498 107.3560 -1.9727
v  85.0866 68.4900 -7.5381
v  102.8108 49.0698 -3.6209
v  94.1665 55.6193 -10.1163
v  143.9434 101.0316 -7.2600
v  16.2864 66.2922 -14.2931
v  -59.9102 33.0490 63.3543
v  110.2140 15.1286 -4.3590
v  77.6404 46.1006 -1.2832
v  82.0052 49.3223 -7.9728
v  42.5005 41.5191 -2.1114
v  145.0806 101.1419 -0.8953
v  -60.2377 32.8918 -63.5940
v  59.3637 54.4526 -10.6305
v  -141.5604 57.5800 48.5613
v  53.6482 65.5001 -0.3384
v  51.3254 63.8339 -7.1639
v  33.9721 83.7697 -3.6931
v  -146.0202 58.0574 16.5801
v  0.9230 38.0569 -11.7668
v  15.9516 54.9257 -17.2464
# 81 vertices

vn -0.0489 -0.7593 0.6489
vn -0.1424 0.3367 -0.9308
vn -0.1743 0.5310 0.8292
vn 0.1145 0.8174 0.5646
vn 0.1157 0.0855 -0.9896
vn -0.0497 -0.9862 -0.1578
vn -0.1390 -0.5528 0.8216
vn -0.1421 -0.9588 -0.2459
vn -0.3424 0.9310 -0.1266
vn -0.2070 0.9614 -0.1812
vn -0.2780 -0.8017 0.5292
vn -0.2490 0.9587 0.1378
vn -0.2078 -0.0156 0.9780
vn 0.2392 -0.9345 0.2635
vn 0.9457 -0.2479 0.2100
vn -0.6064 -0.7803 -0.1530
vn 0.0955 -0.9953 0.0177
vn -0.1678 0.9786 -0.1194
vn 0.5550 -0.8318 0.0004
vn -0.0853 0.3038 -0.9489
vn 0.9628 -0.2495 0.1040
vn -0.2769 0.9594 -0.0540
vn -0.1951 -0.9676 -0.1601
vn -0.6018 -0.7838 0.1535
vn -0.8397 0.4933 0.2268
vn -0.6036 0.7765 0.1809
vn -0.5349 0.8247 -0.1835
vn -0.0504 -0.0280 -0.9983
vn 0.6203 -0.7841 -0.0207
vn 0.0280 -0.9996 0.0007
vn 0.0847 -0.9963 -0.0171
vn -0.2441 -0.8625 0.4433
vn -0.0589 -0.9114 0.4073
vn -0.7543 0.6430 -0.1329
vn -0.0388 -0.0148 -0.9991
vn -0.5701 -0.8068 0.1549
vn -0.1166 -0.6338 0.7646
vn 0.0213 -0.0551 -0.9983
vn 0.9126 0.3988 -0.0899
vn 0.0336 -0.9799 0.1966
vn 0.2386 -0.9492 0.2054
vn 0.0607 -0.9723 -0.2259
vn 0.1352 -0.9657 -0.2217
vn -0.9362 0.3016 -0.1807
vn -0.9712 -0.1073 0.2127
vn 0.2666 -0.2866 -0.9202
vn -0.2244 -0.3384 -0.9139
vn -0.6634 -0.7233 0.1917
vn -0.1056 -0.9912 0.0799
vn 0.4291 0.4679 -0.7726
vn 0.5673 -0.8233 0.0208
vn -0.6704 0.7409 0.0403
vn -0.9187 0.3922 -0.0459
vn -0.1145 -0.9913 -0.0650
vn -0.3902 -0.9089 -0.1470
vn 0.0962 -0.8744 -0.4756
vn -0.0009 -0.9886 0.1508
vn 0.2186 -0.3520 0.9101
vn 0.0881 -0.9712 0.2214
vn -0.1672 0.6716 -0.7218
vn 0.0851 0.7226 -0.6860
vn 0.0989 -0.0126 0.9950
vn -0.1424 0.2690 0.9526
vn 0.1088 0.4433 0.8897
vn 0.1584 -0.5524 -0.8184
vn 0.2357 0.2006 0.9509
vn 0.1705 0.5888 -0.7901
vn -0.2756 0.3969 0.8755
vn -0.7126 0.6398 -0.2877
vn -0.3197 0.9475 0.0098
vn 0.1289 -0.3829 0.9147
vn 0.0147 0.0981 0.9951
vn -0.5886 0.7852 0.1923
vn 0.3739 -0.3559 -0.8565
vn 0.0913 0.6947 -0.7135
vn -0.0753 0.1445 -0.9866
vn -0.1144 -0.5758 0.8095
vn 0.9417 0.3253 -0.0854
vn -0.7103 -0.3250 0.6243
vn -0.1647 -0.9845 0.0595
vn 0.0642 0.9616 0.2670
vn 0.1082 -0.0046 0.9941
vn 0.1054 0.9926 0.0607
vn -0.5670 -0.5340 -0.6271
vn 0.0030 -0.5554 0.8316
vn -0.2272 -0.3300 0.9162
vn 0.4815 -0.4308 0.7632
vn 0.0663 0.0802 -0.9946
vn 0.0233 -0.8975 -0.4404
vn -0.5723 -0.6587 -0.4885
vn 0.2501 0.9530 -0.1710
vn 0.0663 -0.9954 0.0690
vn 0.2098 -0.6753 -0.7071
vn 0.9430 0.2941 0.1555
vn 0.0077 0.2016 -0.9794
vn -0.0208 -0.5309 -0.8472
vn 0.1097 0.4484 0.8871
vn -0.1165 0.6386 0.7606
vn 0.6123 0.1165 0.7820
vn 0.6681 0.1615 -0.7263
vn -0.2297 -0.0067 -0.9732
vn -0.5388 0.4237 -0.7281
vn 0.5942 -0.8034 -0.0382
vn 0.0092 -0.0475 0.9988
vn -0.0017 0.9262 0.3771
vn -0.1362 0.9721 -0.1910
vn 0.2277 0.5953 0.7705
vn 0.6628 0.6436 -0.3827
vn 0.0357 0.2015 -0.9788
vn 0.2073 0.3882 0.8980
vn -0.6539 0.7195 0.2341
vn 0.1321 0.9649 0.2272
vn 0.1289 -0.9237 -0.3607
vn 0.0970 -0.8405 0.5330
vn 0.8442 -0.4718 0.2544
vn 0.9694 0.2070 -0.1321
vn -0.3100 0.7326 0.6060
vn 0.3589 0.8508 0.3839
vn 0.1207 -0.9925 0.0218
vn 0.2139 -0.7163 -0.6642
vn 0.1479 -0.7284 0.6690
vn 0.4671 -0.8714 -0.1496
vn -0.0428 0.7533 0.6562
vn 0.1091 0.1671 0.9799
vn -0.2629 0.4826 -0.8355
vn -0.0336 0.1374 0.9899
vn 0.7733 -0.6211 -0.1274
vn 0.7057 0.6950 -0.1381
vn -0.2351 -0.7006 -0.6737
vn -0.0994 -0.8946 -0.4356
vn -0.0527 0.3061 -0.9506
vn 0.1005 0.2474 -0.9637
vn 0.1487 0.2446 -0.9582
vn 0.1329 -0.4114 -0.9017
vn -0.3332 0.6460 0.6867
vn -0.5737 0.8109 0.1151
vn -0.2932 0.9453 0.1431
vn -0.1314 0.9908 0.0331
vn 0.2194 -0.5669 0.7941
vn 0.1017 -0.9914 -0.0823
vn 0.0472 -0.9951 -0.0870
vn -0.0980 -0.9779 0.1848
vn 0.9526 0.1913 0.2367
vn 0.1801 0.1321 -0.9747
vn -0.2713 0.3515 -0.8960
vn -0.1542 0.6330 -0.7587
vn 0.3218 0.7119 0.6242
vn -0.1296 0.9192 0.3718
vn -0.1404 0.7442 0.6531
vn -0.2847 0.8526 0.4382
vn 0.1004 -0.3872 -0.9165
vn 0.0585 -0.0262 -0.9979
vn 0.1752 -0.9845 0.0067
vn -0.0964 -0.7826 -0.6150
vn 0.0260 -0.3668 -0.9299
vn -0.0836 -0.1727 -0.9814
vn 0.2067 0.4900 -0.8469
vn 0.1958 0.6425 -0.7408
# 158 vertex normals

o Hammerhead_Shark
g Hammerhead_Shark
usemtl wire_177028149
s off
f 1//1 2//1 3//1 
f 4//2 5//2 6//2 
f 7//3 8//3 9//3 
f 10//4 11//4 12//4 
f 13//5 14//5 6//5 
f 15//6 16//6 17//6 
f 3//7 18//7 19//7 
f 17//8 16//8 20//8 
f 5//9 21//9 22//9 
f 5//10 23//10 21//10 
f 3//11 19//11 20//11 
f 21//12 23//12 24//12 
f 19//13 18//13 9//13 
f 19//14 25//14 26//14 
f 9//15 25//15 19//15 
f 27//16 28//16 29//16 
f 26//17 30//17 31//17 
f 5//18 32//18 23//18 
f 33//19 34//19 35//19 
f 36//20 37//20 5//20 
f 5//21 33//21 38//21 
f 39//22 32//22 5//22 
f 35//23 40//23 29//23 
f 41//24 42//24 28//24 
f 42//25 43//25 44//25 
f 24//26 23//26 44//26 
f 23//27 29//27 45//27 
f 35//28 32//28 39//28 
f 38//29 33//29 35//29 
f 26//30 31//30 41//30 
f 35//31 34//31 40//31 
f 16//32 3//32 20//32 
f 1//33 3//33 16//33 
f 32//34 29//34 23//34 
f 35//35 29//35 32//35 
f 41//36 31//36 42//36 
f 30//37 42//37 31//37 
f 38//38 35//38 39//38 
f 38//39 39//39 5//39 
f 26//40 41//40 20//40 
f 19//41 26//41 20//41 
f 34//42 20//42 40//42 
f 46//43 20//43 34//43 
f 45//44 29//44 28//44 
f 42//45 44//45 28//45 
f 46//46 34//46 37//46 
f 36//47 46//47 37//47 
f 41//48 28//48 27//48 
f 20//49 41//49 27//49 
f 37//50 33//50 5//50 
f 34//51 33//51 37//51 
f 45//52 44//52 23//52 
f 45//53 28//53 44//53 
f 40//54 20//54 27//54 
f 40//55 27//55 29//55 
f 47//56 48//56 15//56 
f 15//57 1//57 16//57 
f 49//58 50//58 51//58 
f 51//59 1//59 15//59 
f 6//60 5//60 52//60 
f 6//61 53//61 54//61 
f 55//62 7//62 49//62 
f 18//63 7//63 9//63 
f 10//64 12//64 55//64 
f 48//65 47//65 13//65 
f 56//66 12//66 11//66 
f 6//67 52//67 53//67 
f 56//68 57//68 12//68 
f 22//69 57//69 56//69 
f 57//70 22//70 21//70 
f 58//71 55//71 49//71 
f 59//72 60//72 61//72 
f 62//73 59//73 61//73 
f 63//74 64//74 65//74 
f 66//75 6//75 54//75 
f 65//76 64//76 62//76 
f 2//77 18//77 3//77 
f 50//78 49//78 67//78 
f 67//79 18//79 2//79 
f 67//80 2//80 1//80 
f 49//81 18//81 67//81 
f 7//82 18//82 49//82 
f 54//83 53//83 11//83 
f 68//84 69//84 70//84 
f 60//85 55//85 71//85 
f 68//86 60//86 69//86 
f 72//87 60//87 63//87 
f 14//88 4//88 6//88 
f 47//89 15//89 17//89 
f 73//90 17//90 36//90 
f 73//91 4//91 14//91 
f 73//92 47//92 17//92 
f 13//93 47//93 14//93 
f 73//94 14//94 47//94 
f 62//95 64//95 74//95 
f 71//96 74//96 70//96 
f 12//97 7//97 55//97 
f 12//98 8//98 7//98 
f 68//99 63//99 60//99 
f 68//100 64//100 63//100 
f 4//101 36//101 5//101 
f 73//102 36//102 4//102 
f 25//103 30//103 26//103 
f 75//104 42//104 30//104 
f 62//105 76//105 59//105 
f 62//106 77//106 76//106 
f 76//107 10//107 55//107 
f 76//108 77//108 78//108 
f 77//109 54//109 78//109 
f 76//110 78//110 10//110 
f 78//111 54//111 10//111 
f 10//112 54//112 11//112 
f 69//113 71//113 70//113 
f 60//114 71//114 69//114 
f 25//115 75//115 30//115 
f 75//116 25//116 79//116 
f 8//117 21//117 9//117 
f 9//118 79//118 25//118 
f 48//119 51//119 15//119 
f 80//120 74//120 71//120 
f 51//121 50//121 1//121 
f 50//122 67//122 1//122 
f 59//123 76//123 55//123 
f 60//124 59//124 55//124 
f 62//125 61//125 65//125 
f 72//126 61//126 60//126 
f 65//127 72//127 63//127 
f 72//128 65//128 61//128 
f 17//129 20//129 36//129 
f 36//130 20//130 46//130 
f 74//131 77//131 62//131 
f 81//132 6//132 66//132 
f 74//133 81//133 66//133 
f 80//134 81//134 74//134 
f 75//135 43//135 42//135 
f 24//136 44//136 43//136 
f 24//137 43//137 75//137 
f 79//138 24//138 75//138 
f 71//139 55//139 58//139 
f 71//140 58//140 80//140 
f 58//141 51//141 80//141 
f 58//142 49//142 51//142 
f 53//143 56//143 11//143 
f 53//144 52//144 56//144 
f 56//145 52//145 22//145 
f 22//146 52//146 5//146 
f 9//147 21//147 79//147 
f 79//148 21//148 24//148 
f 57//149 8//149 12//149 
f 8//150 57//150 21//150 
f 80//151 13//151 81//151 
f 81//152 13//152 6//152 
f 48//153 80//153 51//153 
f 48//154 13//154 80//154 
f 70//155 74//155 64//155 
f 68//156 70//156 64//156 
f 74//157 66//157 77//157 
f 77//158 66//158 54//158 
# 158 faces

