# 3ds Max Wavefront OBJ Exporter v0.97b - (c)2007 guruware
# File Created: 12.08.2018 17:27:27

mtllib Squirty.mtl

#
# object Squirty
#

v  -13.4001 21.9292 1.3596
v  -6.9525 31.5161 0.3217
v  -7.2059 29.4536 -9.8611
v  7.0559 31.3027 0.9620
v  13.3808 21.9750 1.4130
v  7.1170 29.4659 -9.9946
v  -6.6113 23.7433 9.2510
v  7.0391 23.0452 8.5469
v  -6.4238 18.0883 -6.7850
v  -5.3145 17.6353 5.1656
v  5.3952 17.6646 5.1014
v  6.3655 17.9798 -6.8208
v  -8.4915 19.9930 -7.6659
v  8.4984 19.8692 -7.4735
v  -6.3439 19.4532 7.0895
v  6.1309 19.5689 7.3003
v  0.0140 26.7452 9.9336
v  0.0140 23.1814 10.8890
v  -5.5694 24.0850 16.5280
v  0.0140 23.6971 23.9715
v  0.0140 35.7329 15.7654
v  10.7518 30.2322 16.7297
v  -7.4158 29.0740 24.0783
v  -3.7777 29.1535 11.8229
v  2.2729 34.6316 24.2806
v  4.0415 26.9048 26.3230
v  -6.5424 33.3489 21.2833
v  0.0140 18.5907 7.5737
v  0.0140 22.6084 -14.1324
v  7.1734 19.0577 -9.1085
v  0.0140 17.4340 -7.3085
v  -0.1573 27.0240 -17.7621
v  0.0140 35.4574 -1.1061
v  -7.1113 19.2263 -9.5433
v  4.4685 22.7569 16.9786
v  6.2539 15.0961 10.6514
v  -6.1078 15.2161 10.6777
v  8.8840 14.2521 8.9164
v  4.0339 14.2942 7.8513
v  6.8401 14.5516 6.7976
v  -4.0558 14.3085 7.7877
v  -6.8622 14.4968 6.8657
v  -8.8161 14.3180 8.9560
v  8.4477 9.3972 8.4884
v  13.9557 6.3613 10.0769
v  -13.9502 6.2459 10.0763
v  -8.5515 9.3551 8.5104
v  14.7294 8.3065 4.4542
v  16.9367 3.0539 6.6053
v  -17.3342 2.7726 6.3565
v  -14.5596 8.6312 4.0986
v  12.3569 11.1101 1.4143
v  17.8391 7.8284 4.5565
v  17.4955 5.1428 8.4851
v  -12.4100 11.0954 1.3425
v  -17.7507 7.9363 4.4709
v  -17.4454 5.2748 8.4747
v  14.2562 11.0007 2.0088
v  20.2537 0.9982 -4.2260
v  -14.3452 11.0308 2.1752
v  -20.3894 1.0335 -4.7313
v  9.9080 23.2241 -10.9865
v  -9.9890 23.2442 -10.8660
v  14.6786 11.1863 -17.6033
v  -14.6745 11.2370 -17.5290
v  7.6897 17.9544 -22.1391
v  11.9483 10.1201 -20.8033
v  9.6514 20.2856 -21.4963
v  12.4014 17.9504 -14.9052
v  12.6354 15.3890 -32.8494
v  -12.0893 10.0275 -21.3311
v  -7.6549 17.9540 -21.9882
v  -9.6532 20.2867 -21.5068
v  -12.6227 15.4776 -32.7890
v  -12.4581 17.8362 -14.8998
# 75 vertices

vn -0.8309 0.5490 -0.0905
vn 0.8264 0.5561 -0.0886
vn -0.7015 0.5241 0.4830
vn 0.6863 0.4913 0.5364
vn -0.4728 -0.8811 0.0105
vn 0.4806 -0.8768 0.0159
vn -0.6250 -0.7603 -0.1768
vn 0.6258 -0.7627 -0.1631
vn -0.6604 -0.3703 0.6533
vn 0.6540 -0.4009 0.6415
vn 0.4483 0.6042 0.6588
vn 0.3108 0.2461 0.9181
vn -0.3768 0.6915 0.6163
vn -0.1210 -0.9919 0.0391
vn 0.3339 0.5131 -0.7907
vn -0.9561 0.0750 -0.2833
vn 0.7174 0.3268 0.6152
vn -0.6197 0.6342 -0.4623
vn -0.1470 0.2212 0.9641
vn -0.5419 -0.7561 0.3671
vn 0.5864 -0.4742 0.6567
vn 0.2507 -0.5668 0.7848
vn 0.0288 -0.7965 -0.6040
vn 0.1817 0.8766 -0.4457
vn -0.0109 -0.7968 -0.6042
vn -0.1930 0.8762 -0.4416
vn -0.1474 -0.9883 0.0390
vn 0.7917 -0.1582 -0.5901
vn -0.4141 0.9101 0.0165
vn -0.5899 -0.7982 0.1219
vn -0.1347 -0.9879 0.0768
vn 0.0989 -0.3587 0.9282
vn 0.1423 -0.9869 0.0767
vn -0.1286 -0.4526 0.8824
vn -0.0598 0.5975 0.7997
vn 0.5734 -0.7045 0.4182
vn 0.0297 0.6469 0.7620
vn -0.5676 -0.7281 0.3843
vn 0.8185 0.2696 -0.5073
vn -0.2489 -0.5499 -0.7973
vn 0.2276 -0.5482 -0.8048
vn -0.7934 0.1695 -0.5846
vn 0.5833 0.4973 0.6423
vn -0.4725 -0.4659 0.7481
vn -0.5756 0.5096 0.6396
vn 0.4860 -0.4741 0.7342
vn -0.4351 -0.4572 -0.7757
vn -0.5935 -0.5154 0.6181
vn 0.5979 -0.5386 0.5937
vn 0.4335 -0.4510 -0.7802
vn 0.5859 0.4733 0.6578
vn -0.5273 -0.5023 -0.6853
vn -0.5798 0.4619 0.6711
vn 0.5471 -0.5138 -0.6608
vn -0.3275 0.6073 -0.7239
vn 0.6542 0.5965 0.4650
vn 0.2710 0.6740 -0.6873
vn -0.6575 0.6034 0.4512
vn 0.0871 -0.9960 -0.0192
vn 0.1086 -0.9135 -0.3921
vn -0.1229 -0.9278 -0.3522
vn -0.1033 -0.9942 -0.0281
vn 0.6141 0.7816 0.1097
vn 0.9772 0.1254 0.1712
vn -0.6182 0.7755 0.1282
vn -0.9746 0.1450 0.1707
vn -0.8769 -0.4440 -0.1843
vn 0.7395 0.6146 -0.2747
vn 0.8655 -0.4732 -0.1643
vn -0.7389 0.6234 -0.2558
vn -0.5257 -0.7941 0.3051
vn 0.7871 -0.5155 0.3389
vn 0.5374 -0.8022 0.2601
vn -0.9096 -0.2913 0.2963
vn 0.0932 -0.6797 0.7276
vn 0.4890 0.4262 0.7611
vn -0.1650 -0.6415 0.7491
vn -0.4716 0.4084 0.7815
vn -0.6151 -0.6181 -0.4895
vn -0.6180 -0.4755 0.6261
vn 0.6127 -0.6264 -0.4819
vn 0.6329 -0.4866 0.6022
vn 0.6110 0.3833 -0.6927
vn 0.8812 0.4264 -0.2039
vn -0.6245 0.3895 -0.6769
vn -0.8816 0.4275 -0.2000
vn 0.7344 -0.6072 0.3031
vn 0.5729 -0.5031 -0.6471
vn 0.4564 0.8898 -0.0060
vn -0.2006 0.9634 0.1778
vn 0.5789 -0.4101 0.7047
vn 0.6464 0.3302 -0.6878
vn -0.6246 0.4458 -0.6412
vn -0.6214 -0.3505 0.7007
vn -0.8708 -0.4860 -0.0745
vn 0.7534 0.6522 -0.0833
vn 0.8685 -0.4913 -0.0660
vn -0.7548 0.6512 -0.0789
vn -0.8279 -0.4950 -0.2637
vn 0.9428 0.3314 -0.0350
vn 0.8305 -0.4870 -0.2703
vn -0.9431 0.3307 -0.0349
vn 0.6194 -0.7317 -0.2847
vn -0.1620 -0.8864 0.4336
vn -0.7091 -0.6490 -0.2757
vn 0.1960 -0.8881 0.4158
vn 0.2707 0.7557 0.5964
vn 0.5329 0.8350 -0.1370
vn -0.3023 0.7483 0.5905
vn -0.5106 0.8451 -0.1585
vn -0.2440 -0.3551 0.9024
vn 0.4283 -0.8185 0.3829
vn -0.0721 0.5429 -0.8367
vn -0.6036 -0.4173 -0.6794
vn 0.7525 -0.6002 -0.2712
vn 0.1556 -0.7448 -0.6489
vn -0.7430 -0.6110 -0.2730
vn -0.1806 -0.7310 -0.6581
vn 0.8913 0.1264 0.4355
vn 0.5436 0.8364 0.0695
vn -0.8851 0.1179 0.4502
vn -0.5655 0.8222 0.0649
vn -0.9586 0.0098 -0.2845
vn -0.3384 0.5624 0.7545
vn -0.8685 0.4899 -0.0759
vn -0.5077 0.8614 -0.0162
vn 0.9258 0.3697 -0.0782
vn 0.4644 0.8854 -0.0202
vn -0.7793 -0.6259 0.0310
vn -0.4118 -0.8071 -0.4230
vn 0.7725 -0.6341 0.0356
vn 0.4030 -0.8157 -0.4150
vn 0.2667 0.6199 -0.7379
vn 0.1759 0.9013 -0.3959
vn -0.3151 0.6610 -0.6810
vn -0.1895 0.9096 -0.3698
vn -0.6225 0.6458 -0.4421
vn -0.7507 0.6552 -0.0852
vn 0.6360 0.6352 -0.4382
vn 0.7454 0.6591 -0.0999
vn -0.3583 -0.6011 -0.7144
vn 0.3797 -0.5786 -0.7218
vn 0.7155 -0.0476 -0.6969
vn 0.3258 0.9275 -0.1832
vn -0.7301 -0.0101 -0.6833
vn -0.3033 0.9308 -0.2039
# 146 vertex normals

o Squirty
g Squirty
usemtl wire_134006006
s off
f 1//1 2//1 3//1 
f 4//2 5//2 6//2 
f 2//3 1//3 7//3 
f 4//4 8//4 5//4 
f 1//5 9//5 10//5 
f 11//6 12//6 5//6 
f 1//7 13//7 9//7 
f 5//8 12//8 14//8 
f 1//9 15//9 7//9 
f 8//10 16//10 5//10 
f 4//11 17//11 8//11 
f 18//12 8//12 17//12 
f 17//13 2//13 7//13 
f 19//14 18//14 20//14 
f 21//15 22//15 17//15 
f 19//16 23//16 24//16 
f 25//17 26//17 22//17 
f 21//18 24//18 27//18 
f 23//19 26//19 25//19 
f 19//20 20//20 23//20 
f 28//21 18//21 19//21 
f 28//22 8//22 18//22 
f 29//23 30//23 31//23 
f 6//24 32//24 33//24 
f 34//25 29//25 31//25 
f 32//26 3//26 33//26 
f 18//27 35//27 20//27 
f 17//28 35//28 18//28 
f 17//29 7//29 19//29 
f 7//30 28//30 19//30 
f 11//31 28//31 31//31 
f 28//32 16//32 8//32 
f 31//33 28//33 10//33 
f 7//34 15//34 28//34 
f 16//35 28//35 36//35 
f 16//36 11//36 5//36 
f 28//37 15//37 37//37 
f 10//38 15//38 1//38 
f 11//39 16//39 38//39 
f 39//40 11//40 40//40 
f 10//41 41//41 42//41 
f 15//42 10//42 43//42 
f 16//43 36//43 38//43 
f 36//44 44//44 45//44 
f 15//45 43//45 37//45 
f 46//46 47//46 37//46 
f 11//47 39//47 28//47 
f 28//48 39//48 36//48 
f 37//49 41//49 28//49 
f 10//50 28//50 41//50 
f 38//51 36//51 45//51 
f 44//52 48//52 49//52 
f 37//53 43//53 46//53 
f 47//54 50//54 51//54 
f 39//55 40//55 52//55 
f 53//56 38//56 54//56 
f 42//57 41//57 55//57 
f 56//58 57//58 43//58 
f 31//59 12//59 11//59 
f 12//60 31//60 30//60 
f 31//61 9//61 34//61 
f 9//62 31//62 10//62 
f 38//63 53//63 58//63 
f 59//64 53//64 54//64 
f 60//65 56//65 43//65 
f 57//66 56//66 61//66 
f 48//67 59//67 49//67 
f 58//68 53//68 59//68 
f 50//69 61//69 51//69 
f 60//70 61//70 56//70 
f 49//71 45//71 44//71 
f 54//72 49//72 59//72 
f 46//73 50//73 47//73 
f 50//74 57//74 61//74 
f 49//75 54//75 45//75 
f 38//76 45//76 54//76 
f 50//77 46//77 57//77 
f 43//78 57//78 46//78 
f 52//79 44//79 39//79 
f 44//80 36//80 39//80 
f 47//81 55//81 41//81 
f 47//82 41//82 37//82 
f 6//83 62//83 32//83 
f 6//84 5//84 62//84 
f 32//85 63//85 3//85 
f 1//86 3//86 63//86 
f 26//87 35//87 22//87 
f 22//88 35//88 17//88 
f 21//89 25//89 22//89 
f 21//90 27//90 25//90 
f 12//91 64//91 14//91 
f 14//92 30//92 29//92 
f 29//93 34//93 13//93 
f 13//94 65//94 9//94 
f 66//95 67//95 12//95 
f 68//96 69//96 70//96 
f 9//97 71//97 72//97 
f 73//98 74//98 75//98 
f 70//99 67//99 66//99 
f 70//100 69//100 64//100 
f 71//101 74//101 72//101 
f 74//102 65//102 75//102 
f 70//103 64//103 67//103 
f 67//104 64//104 12//104 
f 74//105 71//105 65//105 
f 71//106 9//106 65//106 
f 17//107 4//107 33//107 
f 4//108 6//108 33//108 
f 2//109 17//109 33//109 
f 3//110 2//110 33//110 
f 23//111 20//111 26//111 
f 20//112 35//112 26//112 
f 21//113 17//113 24//113 
f 24//114 17//114 19//114 
f 14//115 62//115 5//115 
f 14//116 32//116 62//116 
f 63//117 13//117 1//117 
f 13//118 63//118 32//118 
f 64//119 69//119 14//119 
f 68//120 14//120 69//120 
f 75//121 65//121 13//121 
f 13//122 73//122 75//122 
f 23//123 27//123 24//123 
f 25//124 27//124 23//124 
f 66//125 12//125 30//125 
f 68//126 30//126 14//126 
f 9//127 72//127 34//127 
f 13//128 34//128 73//128 
f 48//129 52//129 59//129 
f 44//130 52//130 48//130 
f 51//131 61//131 55//131 
f 47//132 51//132 55//132 
f 59//133 52//133 58//133 
f 58//134 52//134 40//134 
f 60//135 55//135 61//135 
f 55//136 60//136 42//136 
f 68//137 70//137 66//137 
f 68//138 66//138 30//138 
f 73//139 72//139 74//139 
f 73//140 34//140 72//140 
f 29//141 13//141 32//141 
f 14//142 29//142 32//142 
f 11//143 38//143 40//143 
f 58//144 40//144 38//144 
f 10//145 42//145 43//145 
f 42//146 60//146 43//146 
# 146 faces

