# 3ds Max Wavefront OBJ Exporter v0.97b - (c)2007 guruware
# File Created: 12.08.2018 17:23:04

mtllib Ramp Fish.mtl

#
# object Ramp_Fish
#

v  6.2987 40.2783 -2.7091
v  126.6014 30.8661 -2.7173
v  36.3041 40.7418 2.3166
v  147.9146 34.0370 0.2414
v  42.9344 47.1536 2.1604
v  131.9837 29.2482 1.8297
v  38.6034 47.1825 -2.0122
v  -157.5873 57.7733 73.6997
v  -134.1136 59.8961 125.3549
v  -151.3464 61.4409 62.0835
v  -94.9843 19.6079 -49.0947
v  -44.4476 35.1860 -47.8454
v  -10.7197 35.3758 0.2474
v  -72.2176 51.5146 69.0230
v  -62.7764 48.4697 112.7085
v  -20.5813 44.7897 60.8489
v  -40.8411 35.2658 43.4787
v  -59.1889 43.9416 100.3723
v  -83.2727 34.8201 86.5512
v  -140.3463 46.8468 86.8327
v  -127.2337 49.7201 114.8814
v  -133.5021 57.8304 140.7831
v  -153.2535 24.3196 -55.1927
v  -177.8698 26.8625 -47.1740
v  -181.7065 38.6070 -61.7369
v  -178.7401 59.5738 1.9604
v  -166.3274 62.2037 -37.2271
v  -185.0643 52.9155 -50.3376
v  -74.6135 33.3261 -72.5192
v  -82.1830 47.8923 -140.3425
v  -4.3587 47.5974 -4.2765
v  -19.8048 44.6982 -57.2658
v  -46.5129 50.5472 -45.8373
v  -156.8343 19.4463 43.6795
v  -140.7097 14.1047 -16.4568
v  -138.6468 14.7617 28.3315
v  -97.8652 15.8438 25.1473
v  -99.6668 14.5252 0.2176
v  -3.7545 47.4928 4.1280
v  -152.6553 67.2148 30.8801
v  -151.3634 68.7756 -5.7168
v  -194.7392 54.2151 -17.0462
v  -194.5321 38.3264 -21.6720
v  -177.3386 32.0605 -1.0752
v  -193.0648 36.9308 24.7887
v  -157.6684 24.3270 53.2491
v  -120.9533 27.9332 76.1478
v  -153.8918 40.4731 69.6074
v  -198.3594 50.0142 -18.5676
v  -200.0988 48.6198 24.8621
v  -43.3591 50.3526 42.4076
v  -25.9013 53.3971 4.9088
v  -90.2411 63.8712 41.3888
v  -62.6319 57.4679 -35.4555
v  -23.9984 52.9803 -4.5144
v  -132.2969 18.3341 54.2758
v  -96.5968 51.2222 154.2431
v  -114.9948 36.2675 95.9622
v  -100.4193 33.6088 92.2353
v  -67.3440 49.2188 -118.5167
v  -81.1999 52.5882 -72.4860
v  -127.2595 49.3655 -113.6598
v  -145.5726 54.4805 -102.6267
v  -116.2479 62.1060 -180.7631
v  -113.0391 57.9298 -72.1740
v  -104.2714 59.2389 -115.9902
v  -97.0208 49.7238 -149.9447
v  -114.8586 36.3672 -96.6224
v  -130.2354 68.4835 43.9965
v  -99.5059 60.0470 56.6989
v  -93.8427 54.9505 74.4747
v  -131.5421 60.7000 70.0682
v  -124.4566 61.1822 118.7904
v  -116.1047 61.0568 179.6104
v  -87.8086 54.9165 122.3048
v  -131.3805 60.0798 -138.4355
v  -155.7169 58.4809 -73.4316
v  -177.2279 47.8506 -64.8507
v  -200.9364 45.4944 -56.6576
v  -159.7622 51.2600 -78.4074
v  -124.5181 30.5867 -77.5965
v  -92.8002 67.2225 22.2628
v  -123.6085 70.9459 0.7990
v  -34.3979 55.2561 -0.6521
v  -90.4439 67.6219 -14.0456
v  -105.0992 19.4648 53.3376
v  -133.6595 68.6873 -43.9311
v  -90.4077 64.0739 -41.2323
v  -97.5795 33.3299 -91.9851
v  -134.5013 17.8642 -52.8542
v  -210.0156 35.4981 44.8374
v  -203.5409 45.5952 55.3604
v  -183.6573 53.2848 52.0148
v  -198.7776 34.4519 -57.9264
v  2.5091 42.0579 -23.5929
v  -25.3523 40.8847 -70.5731
v  -200.3849 33.5201 -33.3819
v  -199.6783 34.4002 57.7393
v  -179.8262 31.6650 54.9510
v  -183.7979 37.6878 61.3357
v  -199.1433 33.3338 34.1237
v  -82.0933 22.7499 46.7546
v  4.7412 45.7206 0.5353
v  2.4458 42.4859 23.5408
v  6.1449 40.4727 2.7571
v  -178.7849 27.8145 43.4940
v  -98.2091 15.7265 -24.7467
v  -131.6112 60.9242 -98.0017
v  -143.8936 62.0552 -65.7533
v  -88.7617 58.0830 169.8585
v  -82.7599 50.1984 148.4644
v  -206.8490 44.6894 -40.5053
v  -57.4056 44.8963 -103.1450
v  -21.8479 39.9650 63.3999
v  -157.8044 19.8239 -43.6798
v  -157.8101 20.6413 -0.7552
v  -182.2520 46.7080 63.1899
v  -151.8660 53.8504 92.3712
v  -108.8632 66.7357 167.6418
v  -104.9635 83.7157 228.4666
v  -89.9595 59.8858 -172.8786
v  -119.7155 62.5727 -140.6377
v  -105.9242 79.1292 -218.7584
v  -107.7968 66.9221 -174.0607
v  -120.8560 67.7016 180.3752
v  -102.3451 68.9064 204.7008
v  -90.8615 57.2454 -173.5802
v  -117.7693 68.2818 -184.6550
v  -166.3888 48.3835 73.7167
v  -106.8830 59.9771 120.7818
v  -211.9254 26.0866 -44.6107
v  -199.8527 23.1687 -44.5287
v  -185.5460 24.9974 -47.1227
v  -210.2837 13.6012 -13.8347
v  -214.2820 29.0652 -38.8659
v  -195.9756 25.4434 -37.7893
v  -190.8331 22.9639 45.4928
v  -220.6087 23.5095 32.5661
v  -212.1225 29.3893 36.6351
v  -211.6180 13.6937 12.0651
v  -197.4367 23.8092 35.6902
v  -139.2800 45.3584 -85.5523
v  -194.3216 55.4388 10.8889
v  -5.4956 69.9283 -0.3238
v  218.1327 29.6751 -1.2346
v  220.0721 29.4361 2.7125
# 146 vertices

vn -0.0681 -0.8708 0.4869
vn 0.0414 0.1878 0.9813
vn 0.0057 0.0739 -0.9972
vn -0.3363 0.9348 0.1144
vn 0.2931 -0.9345 -0.2018
vn 0.1352 0.9900 0.0398
vn 0.2328 -0.9474 0.2196
vn -0.2773 -0.9340 0.2253
vn -0.2641 -0.7836 -0.5623
vn -0.4051 0.9118 -0.0671
vn 0.2459 -0.9417 -0.2297
vn 0.1704 0.9799 -0.1033
vn -0.2296 -0.9730 0.0248
vn 0.2281 -0.9730 0.0350
vn 0.1425 0.9858 0.0893
vn -0.3110 0.9499 0.0295
vn -0.2087 0.9730 -0.0986
vn -0.3230 -0.9462 -0.0182
vn -0.3724 -0.6161 0.6941
vn -0.8559 -0.5147 -0.0508
vn 0.2674 0.9424 0.2010
vn 0.2725 0.9403 -0.2038
vn -0.2195 -0.8463 0.4853
vn -0.1032 -0.9551 0.2777
vn 0.1352 0.9903 -0.0318
vn -0.3893 -0.8911 -0.2331
vn 0.1599 0.9651 -0.2073
vn 0.1657 0.9842 0.0626
vn 0.2624 0.9649 0.0084
vn -0.1494 -0.9462 -0.2870
vn 0.1289 0.9409 0.3131
vn 0.1544 0.9875 -0.0322
vn -0.1152 -0.9528 0.2808
vn 0.2539 0.9672 0.0125
vn -0.9265 0.1543 -0.3431
vn -0.2356 0.8710 -0.4312
vn 0.0044 -0.9999 0.0145
vn -0.3698 -0.6562 -0.6578
vn 0.0729 0.9950 0.0679
vn 0.2098 0.9774 0.0244
vn 0.0304 -0.9983 0.0506
vn 0.0515 -0.9240 0.3788
vn 0.1190 0.9537 -0.2764
vn 0.1077 0.9940 0.0179
vn 0.0712 -0.9488 -0.3078
vn 0.2888 -0.9142 -0.2842
vn -0.8234 0.5663 -0.0368
vn -0.3620 0.9287 0.0811
vn -0.3302 0.0438 -0.9429
vn -0.9485 -0.3160 0.0205
vn 0.3339 0.9309 -0.1483
vn 0.2549 -0.9586 -0.1272
vn -0.7509 -0.3879 0.5345
vn -0.4493 -0.8871 0.1052
vn -0.0042 -0.7287 0.6848
vn -0.6850 -0.4084 -0.6034
vn 0.2990 -0.9317 0.2060
vn 0.9408 0.3098 0.1374
vn -0.0661 -0.9159 -0.3959
vn -0.4398 -0.8926 -0.0993
vn 0.1402 0.9468 0.2897
vn -0.2945 0.9374 0.1858
vn 0.0578 -0.9870 -0.1497
vn 0.2501 -0.9608 -0.1200
vn -0.1224 0.9922 -0.0214
vn -0.1917 0.9690 -0.1558
vn 0.2273 0.9720 -0.0602
vn 0.2245 -0.9462 0.2332
vn -0.4091 0.8994 -0.1540
vn -0.8800 -0.2529 0.4020
vn 0.0685 -0.9798 -0.1881
vn 0.1620 -0.9807 -0.1098
vn -0.0311 -0.9191 0.3928
vn 0.0462 -0.7716 -0.6344
vn 0.0643 -0.9832 0.1707
vn 0.1423 -0.9851 0.0967
vn 0.0185 -0.9949 -0.0996
vn -0.3337 -0.9425 0.0179
vn 0.7739 0.1251 0.6208
vn 0.3439 -0.9268 0.1510
vn -0.3477 0.0786 0.9343
vn -0.3524 0.9343 0.0529
vn -0.9163 0.2285 0.3288
vn -0.2325 0.8252 0.5149
vn -0.0954 -0.9576 -0.2718
vn -0.1854 -0.8415 -0.5075
vn -0.0871 0.9954 0.0394
vn -0.2275 0.9562 -0.1839
vn -0.3850 0.9126 0.1374
vn 0.4057 0.8733 -0.2698
vn 0.2099 -0.9534 -0.2166
vn 0.2660 0.9608 0.0779
vn -0.5553 -0.7601 0.3375
vn -0.0635 -0.9130 0.4031
vn 0.1263 0.9905 0.0549
vn 0.3392 0.9038 0.2610
vn -0.1917 0.9484 -0.2525
vn -0.3786 -0.8037 0.4591
vn -0.0544 -0.9056 -0.4205
vn -0.1408 0.9565 0.2553
vn -0.3088 -0.9264 0.2153
vn -0.7138 -0.5590 0.4220
vn -0.7852 -0.4569 -0.4180
vn -0.8966 0.3208 -0.3052
vn -0.3885 -0.7219 0.5726
vn -0.6846 0.6423 0.3447
vn -0.5372 0.6615 -0.5233
vn -0.3257 0.9261 -0.1907
vn -0.0298 0.9942 -0.1035
vn 0.0778 0.9933 -0.0859
vn -0.5342 0.6658 -0.5208
vn -0.1676 -0.6665 -0.7265
vn -0.0088 -0.9394 0.3427
vn 0.2989 -0.9107 0.2851
vn -0.3896 0.9159 -0.0970
vn -0.8966 0.3137 -0.3126
vn 0.0729 -0.9589 -0.2741
vn -0.4310 0.2945 0.8529
vn 0.0834 0.9868 -0.1388
vn 0.3997 0.9151 -0.0529
vn 0.5708 0.5477 0.6117
vn 0.1390 0.8523 0.5043
vn -0.7786 -0.1386 0.6120
vn -0.0054 -0.7328 0.6804
vn 0.8960 -0.2009 -0.3960
vn 0.8912 -0.1957 -0.4092
vn -0.8859 -0.4444 -0.1330
vn -0.8015 0.3289 -0.4994
vn 0.3593 0.9278 0.1009
vn 0.0052 0.9914 0.1309
vn -0.2847 0.9474 0.1462
vn -0.5874 0.5517 0.5920
vn -0.6802 -0.4105 -0.6073
vn -0.7777 0.0454 0.6270
vn 0.6341 0.6321 -0.4455
vn 0.7401 0.4984 -0.4514
vn -0.3060 0.7994 -0.5170
vn -0.2554 -0.7917 0.5549
vn -0.0698 0.9970 -0.0347
vn 0.0702 0.9953 -0.0660
vn -0.1740 -0.9157 0.3621
vn 0.2757 0.8126 -0.5134
vn -0.5630 -0.7498 -0.3476
vn -0.0781 -0.9422 -0.3259
vn 0.8282 0.1182 -0.5478
vn 0.1508 -0.6730 -0.7241
vn -0.8027 0.5861 0.1103
vn -0.7329 -0.5673 0.3755
vn -0.5345 0.8254 0.1818
vn -0.7736 0.6336 -0.0106
vn 0.2833 -0.9581 0.0420
vn 0.2713 -0.9553 0.1172
vn -0.5324 -0.8135 0.2340
vn -0.2631 -0.8585 0.4402
vn -0.2209 -0.8282 -0.5150
vn -0.1315 -0.9835 -0.1240
vn -0.1637 0.9688 0.1861
vn -0.0822 0.9956 0.0442
vn -0.3427 -0.9393 0.0178
vn -0.3705 -0.9287 -0.0168
vn 0.2590 0.9455 0.1974
vn 0.2613 0.9447 -0.1980
vn 0.2056 0.9785 0.0130
vn -0.3261 0.6266 0.7078
vn 0.0604 0.1770 -0.9824
vn 0.0878 0.2004 0.9758
vn 0.6671 -0.5970 0.4455
vn -0.0536 -0.9443 0.3248
vn 0.2843 0.9436 -0.1695
vn 0.4883 0.1761 -0.8547
vn 0.4257 -0.8037 0.4156
vn 0.6873 -0.5975 0.4130
vn -0.5011 -0.8598 -0.0982
vn -0.5034 -0.8580 0.1025
vn -0.0451 0.0709 0.9965
vn -0.0864 0.4918 -0.8664
vn -0.3162 -0.8511 -0.4191
vn -0.5246 -0.8165 -0.2411
vn 0.3102 -0.8597 0.4058
vn 0.6956 -0.5850 0.4170
vn -0.0070 -0.9447 -0.3279
vn 0.0671 0.4013 -0.9135
vn -0.1550 -0.5371 0.8292
vn 0.6652 -0.0436 0.7454
vn -0.0395 0.9981 0.0479
vn 0.1210 0.9855 -0.1187
vn 0.0459 -0.9892 0.1389
vn 0.2506 -0.9601 0.1239
vn -0.3286 0.9436 -0.0408
vn -0.2136 0.9717 -0.1012
vn -0.1709 -0.6812 0.7118
vn -0.3560 -0.9343 -0.0173
vn 0.2335 0.9604 -0.1522
vn 0.1131 0.9852 -0.1284
vn -0.2128 0.9768 -0.0216
vn -0.8508 -0.4138 -0.3240
vn -0.1148 -0.9799 0.1630
vn 0.0363 -0.9912 0.1276
vn -0.0014 0.9917 0.1286
vn -0.1861 0.9754 0.1183
vn -0.2569 -0.8231 0.5065
vn -0.4215 -0.8767 0.2319
vn 0.0608 0.9467 -0.3162
vn 0.0771 0.9952 0.0600
vn 0.0099 0.3921 0.9199
vn 0.0094 -0.9993 0.0358
vn 0.2541 0.9591 -0.1248
vn 0.2886 0.8766 -0.3851
vn 0.1523 0.9882 -0.0185
vn 0.2494 0.8932 0.3741
vn -0.2766 0.9602 -0.0379
vn -0.1997 0.9745 0.1028
vn 0.4522 -0.7233 0.5219
vn 0.2138 0.9582 0.1900
vn -0.6937 -0.0531 -0.7183
vn -0.0193 -0.7640 -0.6450
vn -0.1531 -0.2480 -0.9566
vn -0.6169 0.0340 -0.7863
vn -0.2819 -0.9169 0.2825
vn 0.3991 -0.8576 0.3245
vn 0.2613 -0.9147 -0.3084
vn 0.2230 -0.9386 -0.2633
vn -0.1831 -0.6653 0.7238
vn -0.3405 -0.7971 0.4987
vn 0.5908 -0.7231 -0.3578
vn 0.0164 -0.9772 -0.2117
vn 0.8303 0.0576 -0.5544
vn -0.1326 -0.1839 -0.9740
vn 0.8266 -0.0806 -0.5571
vn 0.3748 -0.8006 -0.4675
vn -0.3061 0.7995 -0.5168
vn -0.3390 0.7942 -0.5044
vn 0.8512 0.0526 0.5221
vn 0.3199 0.9371 0.1395
vn -0.0778 0.9564 0.2816
vn 0.0439 0.9989 -0.0163
vn 0.1829 -0.7347 0.6532
vn 0.1516 -0.6444 -0.7495
vn 0.2587 0.9654 -0.0320
vn 0.2638 0.9562 -0.1268
vn -0.2172 0.9691 -0.1167
vn 0.1360 0.9906 0.0171
vn 0.1539 -0.9529 0.2612
vn 0.1714 -0.9323 0.3184
vn 0.0675 -0.9557 -0.2865
vn -0.0890 -0.9422 -0.3230
vn 0.0288 -0.9702 0.2407
vn 0.0713 -0.9387 0.3371
vn -0.7072 0.6245 -0.3313
vn -0.4051 -0.7130 -0.5723
vn -0.1927 0.9769 -0.0921
vn -0.0978 0.9939 0.0509
vn -0.3659 -0.8702 -0.3301
vn -0.4208 -0.8554 -0.3019
vn 0.1583 0.9787 -0.1310
vn 0.2442 0.9380 -0.2461
vn 0.0071 0.0170 0.9998
vn -0.1177 -0.9714 -0.2063
vn -0.2441 -0.8667 -0.4350
vn -0.2307 -0.8720 -0.4317
vn 0.2660 0.9506 0.1602
vn 0.4175 0.2079 0.8846
vn -0.3285 -0.8527 0.4062
vn -0.2242 -0.8759 0.4272
vn 0.2148 0.9767 0.0029
vn -0.2210 0.4546 -0.8629
vn 0.1874 -0.9671 0.1723
vn 0.2159 -0.9326 0.2892
vn 0.2046 0.9563 0.2090
vn 0.1191 0.9638 0.2384
vn 0.1232 0.9802 0.1553
vn 0.2345 0.9624 0.1373
vn 0.9272 0.3480 -0.1386
vn 0.2540 -0.9587 -0.1278
vn -0.2172 -0.9085 -0.3570
vn -0.1759 -0.7460 -0.6423
vn 0.0291 -0.9985 -0.0464
vn 0.2281 -0.9731 -0.0335
vn -0.4123 0.7616 0.5000
vn -0.0288 -0.7360 0.6764
vn 0.0208 0.6039 -0.7968
vn -0.0101 0.3450 0.9385
vn -0.1847 -0.1674 0.9684
vn -0.5455 -0.0780 0.8345
vn 0.0626 0.9976 0.0296
vn 0.0027 -0.9981 -0.0618
vn -0.7543 0.6563 -0.0175
vn -0.7752 0.6133 0.1511
# 288 vertex normals

o Ramp_Fish
g Ramp_Fish
usemtl wire_177028149
s off
f 1//1 2//1 3//1 
f 4//2 5//2 6//2 
f 2//3 1//3 7//3 
f 8//4 9//4 10//4 
f 11//5 12//5 13//5 
f 14//6 15//6 16//6 
f 17//7 18//7 19//7 
f 20//8 21//8 22//8 
f 23//9 24//9 25//9 
f 26//10 27//10 28//10 
f 29//11 30//11 12//11 
f 31//12 32//12 33//12 
f 34//13 35//13 36//13 
f 37//14 38//14 13//14 
f 16//15 39//15 14//15 
f 40//16 41//16 26//16 
f 28//17 42//17 26//17 
f 43//18 44//18 45//18 
f 46//19 47//19 48//19 
f 49//20 45//20 50//20 
f 51//21 52//21 53//21 
f 33//22 54//22 55//22 
f 47//23 46//23 56//23 
f 57//24 58//24 59//24 
f 60//25 61//25 32//25 
f 62//26 63//26 64//26 
f 61//27 65//27 54//27 
f 61//28 66//28 65//28 
f 60//29 66//29 61//29 
f 64//30 67//30 68//30 
f 53//31 69//31 70//31 
f 71//32 72//32 73//32 
f 58//33 57//33 74//33 
f 14//34 75//34 15//34 
f 76//35 63//35 77//35 
f 78//36 79//36 28//36 
f 38//37 36//37 35//37 
f 23//38 80//38 81//38 
f 82//39 83//39 69//39 
f 84//40 85//40 82//40 
f 36//41 38//41 37//41 
f 86//42 47//42 56//42 
f 87//43 88//43 65//43 
f 85//44 83//44 82//44 
f 89//45 11//45 90//45 
f 11//46 29//46 12//46 
f 91//47 92//47 50//47 
f 93//48 40//48 26//48 
f 94//49 79//49 78//49 
f 43//50 45//50 49//50 
f 95//51 32//51 31//51 
f 96//52 95//52 13//52 
f 97//53 43//53 49//53 
f 43//54 24//54 44//54 
f 98//55 99//55 100//55 
f 45//56 101//56 50//56 
f 102//57 13//57 17//57 
f 103//58 104//58 105//58 
f 45//59 106//59 101//59 
f 45//60 44//60 106//60 
f 69//61 72//61 70//61 
f 40//62 93//62 10//62 
f 90//63 11//63 107//63 
f 107//64 11//64 13//64 
f 76//65 77//65 108//65 
f 109//66 77//66 27//66 
f 15//67 75//67 110//67 
f 18//68 111//68 19//68 
f 28//69 112//69 42//69 
f 112//70 97//70 49//70 
f 113//71 96//71 12//71 
f 12//72 96//72 13//72 
f 97//73 24//73 43//73 
f 24//74 94//74 25//74 
f 18//75 17//75 114//75 
f 13//76 114//76 17//76 
f 107//77 35//77 90//77 
f 24//78 115//78 116//78 
f 16//79 15//79 114//79 
f 114//80 105//80 104//80 
f 98//81 117//81 92//81 
f 50//82 92//82 93//82 
f 8//83 118//83 22//83 
f 93//84 92//84 117//84 
f 68//85 67//85 89//85 
f 90//86 81//86 89//86 
f 83//87 41//87 40//87 
f 87//88 109//88 27//88 
f 9//89 8//89 22//89 
f 119//90 120//90 110//90 
f 113//91 12//91 30//91 
f 121//92 66//92 60//92 
f 21//93 20//93 47//93 
f 47//94 59//94 58//94 
f 66//95 122//95 65//95 
f 121//96 123//96 124//96 
f 119//97 125//97 120//97 
f 74//98 126//98 120//98 
f 64//99 123//99 127//99 
f 123//100 128//100 124//100 
f 21//101 74//101 22//101 
f 74//102 120//102 125//102 
f 123//103 64//103 128//103 
f 76//104 64//104 63//104 
f 48//105 47//105 20//105 
f 118//106 8//106 129//106 
f 80//107 28//107 77//107 
f 77//108 28//108 27//108 
f 119//109 73//109 125//109 
f 130//110 71//110 73//110 
f 80//111 78//111 28//111 
f 23//112 25//112 80//112 
f 47//113 86//113 59//113 
f 17//114 19//114 102//114 
f 28//115 79//115 112//115 
f 112//116 79//116 131//116 
f 132//117 133//117 134//117 
f 112//118 135//118 97//118 
f 130//119 73//119 119//119 
f 75//120 119//120 110//120 
f 133//121 136//121 134//121 
f 134//122 136//122 135//122 
f 98//123 92//123 91//123 
f 137//124 99//124 98//124 
f 127//125 123//125 121//125 
f 60//126 127//126 121//126 
f 135//127 131//127 134//127 
f 112//128 131//128 135//128 
f 121//129 124//129 66//129 
f 124//130 122//130 66//130 
f 93//131 8//131 10//131 
f 93//132 129//132 8//132 
f 50//133 101//133 91//133 
f 138//134 98//134 91//134 
f 96//135 60//135 32//135 
f 96//136 32//136 95//136 
f 139//137 140//137 138//137 
f 138//138 137//138 98//138 
f 87//139 41//139 83//139 
f 85//140 87//140 83//140 
f 137//141 138//141 140//141 
f 141//142 140//142 139//142 
f 142//143 62//143 81//143 
f 81//144 68//144 89//144 
f 140//145 141//145 137//145 
f 137//146 101//146 106//146 
f 125//147 9//147 22//147 
f 74//148 125//148 22//148 
f 93//149 143//149 50//149 
f 49//150 50//150 143//150 
f 13//151 1//151 105//151 
f 13//152 105//152 114//152 
f 74//153 21//153 58//153 
f 58//154 21//154 47//154 
f 23//155 81//155 90//155 
f 115//156 90//156 35//156 
f 69//157 40//157 10//157 
f 69//158 83//158 40//158 
f 115//159 35//159 116//159 
f 34//160 116//160 35//160 
f 52//161 51//161 39//161 
f 31//162 33//162 55//162 
f 52//163 84//163 82//163 
f 84//164 52//164 144//164 
f 55//165 144//165 31//165 
f 52//166 39//166 144//166 
f 126//167 110//167 120//167 
f 57//168 126//168 74//168 
f 103//169 95//169 31//169 
f 144//170 103//170 31//170 
f 111//171 110//171 126//171 
f 111//172 15//172 110//172 
f 106//173 44//173 116//173 
f 24//174 116//174 44//174 
f 3//175 5//175 103//175 
f 103//176 7//176 1//176 
f 62//177 68//177 81//177 
f 62//178 64//178 68//178 
f 18//179 114//179 15//179 
f 111//180 18//180 15//180 
f 6//181 2//181 145//181 
f 7//182 4//182 2//182 
f 135//183 136//183 97//183 
f 136//184 133//184 97//184 
f 7//185 103//185 5//185 
f 4//186 7//186 5//186 
f 56//187 37//187 86//187 
f 37//188 13//188 102//188 
f 27//189 26//189 41//189 
f 87//190 27//190 41//190 
f 48//191 99//191 46//191 
f 106//192 116//192 34//192 
f 85//193 55//193 54//193 
f 88//194 87//194 85//194 
f 108//195 122//195 76//195 
f 128//196 64//196 76//196 
f 34//197 36//197 56//197 
f 36//198 37//198 56//198 
f 128//199 122//199 124//199 
f 128//200 76//200 122//200 
f 48//201 20//201 118//201 
f 118//202 20//202 22//202 
f 87//203 65//203 109//203 
f 65//204 122//204 108//204 
f 105//205 3//205 103//205 
f 1//206 3//206 105//206 
f 88//207 85//207 54//207 
f 54//208 65//208 88//208 
f 71//209 75//209 14//209 
f 51//210 53//210 70//210 
f 26//211 42//211 143//211 
f 26//212 143//212 93//212 
f 39//213 51//213 14//213 
f 51//214 70//214 14//214 
f 94//215 131//215 79//215 
f 133//216 132//216 94//216 
f 25//217 94//217 78//217 
f 25//218 78//218 80//218 
f 46//219 99//219 106//219 
f 137//220 106//220 99//220 
f 89//221 29//221 11//221 
f 29//222 89//222 67//222 
f 99//223 48//223 129//223 
f 129//224 48//224 118//224 
f 127//225 60//225 30//225 
f 67//226 30//226 29//226 
f 137//227 141//227 101//227 
f 141//228 139//228 101//228 
f 113//229 30//229 60//229 
f 96//230 113//230 60//230 
f 139//231 138//231 91//231 
f 139//232 91//232 101//232 
f 16//233 114//233 104//233 
f 104//234 39//234 16//234 
f 69//235 10//235 72//235 
f 72//236 10//236 73//236 
f 24//237 97//237 133//237 
f 133//238 94//238 24//238 
f 71//239 130//239 75//239 
f 75//240 130//240 119//240 
f 108//241 77//241 109//241 
f 108//242 109//242 65//242 
f 59//243 19//243 57//243 
f 86//244 19//244 59//244 
f 67//245 127//245 30//245 
f 64//246 127//246 67//246 
f 57//247 19//247 111//247 
f 57//248 111//248 126//248 
f 77//249 63//249 80//249 
f 80//250 142//250 81//250 
f 73//251 9//251 125//251 
f 73//252 10//252 9//252 
f 80//253 63//253 142//253 
f 63//254 62//254 142//254 
f 32//255 61//255 33//255 
f 33//256 61//256 54//256 
f 3//257 6//257 5//257 
f 3//258 2//258 6//258 
f 115//259 23//259 90//259 
f 115//260 24//260 23//260 
f 103//261 39//261 104//261 
f 39//262 103//262 144//262 
f 34//263 46//263 106//263 
f 56//264 46//264 34//264 
f 55//265 85//265 84//265 
f 55//266 84//266 144//266 
f 86//267 37//267 102//267 
f 86//268 102//268 19//268 
f 71//269 14//269 70//269 
f 70//270 72//270 71//270 
f 82//271 69//271 53//271 
f 52//272 82//272 53//272 
f 1//273 95//273 103//273 
f 95//274 1//274 13//274 
f 131//275 132//275 134//275 
f 131//276 94//276 132//276 
f 35//277 107//277 38//277 
f 38//278 107//278 13//278 
f 93//279 117//279 129//279 
f 100//280 99//280 129//280 
f 2//281 4//281 145//281 
f 6//282 146//282 4//282 
f 98//283 100//283 117//283 
f 117//284 100//284 129//284 
f 146//285 145//285 4//285 
f 145//286 146//286 6//286 
f 143//287 42//287 49//287 
f 42//288 112//288 49//288 
# 288 faces

