# 3ds Max Wavefront OBJ Exporter v0.97b - (c)2007 guruware
# File Created: 12.08.2018 16:35:30

mtllib Killer whale.mtl

#
# object Killer_whale
#

v  -2.7990 91.7576 -48.3699
v  -120.3648 95.5643 -31.8837
v  -19.7425 115.9837 -33.7281
v  -120.1112 95.1822 31.8977
v  -8.9314 92.0858 47.9536
v  -18.9997 115.9457 33.8409
v  -10.1607 47.4056 -43.5308
v  197.1715 47.0523 -0.0328
v  -49.1667 38.4683 -0.0327
v  56.5736 94.2148 -45.1041
v  140.6347 83.1035 -36.4706
v  -3.9519 64.1675 -52.9385
v  141.3037 82.9763 36.3937
v  56.3861 94.2330 45.1064
v  -3.1054 63.9641 52.7987
v  77.1777 46.0442 27.8720
v  -156.5104 61.3482 -0.0326
v  -60.7441 58.7825 -47.3127
v  -59.3959 58.7574 47.8656
v  15.6873 125.2226 30.6369
v  57.3180 129.0837 21.3675
v  42.2487 139.8976 10.1485
v  18.9325 136.4321 16.0620
v  38.0937 149.8190 6.9467
v  22.5755 143.0797 -0.0327
v  59.4130 129.3347 -20.8186
v  15.8202 125.1442 -30.7382
v  42.7709 140.1873 -9.8313
v  19.0873 136.3914 -16.1392
v  37.8518 149.3011 -6.9819
v  69.2792 222.4622 -0.0327
v  52.4851 150.7948 5.3049
v  63.7692 145.4400 7.8029
v  53.1409 150.8436 -5.3214
v  63.5018 145.8298 -7.7514
v  -18.6743 126.6303 -22.9693
v  -91.0237 118.0362 -24.3533
v  -18.5272 126.7512 22.8661
v  -90.8884 118.0366 24.3932
v  135.0639 113.0849 -23.8725
v  196.1861 104.9824 -11.9083
v  246.9068 81.1653 -19.1322
v  246.1398 81.4316 19.1768
v  195.7536 105.2949 11.5188
v  136.6714 113.0469 23.5235
v  107.3104 121.8109 -22.8535
v  78.1169 135.4695 -11.2718
v  77.9993 135.3865 11.4343
v  107.5182 121.8933 22.7397
v  220.0935 61.1915 22.7674
v  254.5066 70.5365 27.9348
v  277.6306 68.0344 23.4800
v  260.5374 83.5944 6.9100
v  218.6647 61.3515 -23.0235
v  285.5706 66.0025 -21.3529
v  255.1555 70.5828 -27.8744
v  259.8398 83.9253 -6.8412
v  11.1693 110.5412 40.8702
v  10.6407 110.2059 -41.0499
v  268.0026 48.7371 -0.0329
v  248.3672 54.4597 24.3152
v  248.0273 54.1749 -22.6592
v  -156.2357 89.2530 -0.0326
v  -117.3876 116.4314 -0.0326
v  132.8172 99.5929 32.8418
v  62.4972 110.7894 37.1534
v  134.9399 99.6791 -32.4487
v  62.4396 110.5945 -37.2746
v  244.6217 62.5688 30.4917
v  215.3803 80.9197 24.9789
v  216.9358 80.8233 -24.7640
v  244.2789 63.3739 -30.4531
v  269.5038 81.7697 -0.0329
v  211.6080 102.1604 -0.0328
v  150.6701 119.7607 -0.0328
v  279.9134 51.3394 74.8739
v  280.3970 51.1193 -75.3182
v  86.0740 135.4699 -0.0327
v  74.5540 143.3911 6.6406
v  78.4274 143.3301 -0.0327
v  74.4501 143.4583 -6.6939
v  -110.7824 49.5880 -17.7284
v  -53.3504 48.5321 -41.7428
v  -52.4961 48.3559 41.7497
v  -110.0426 49.5017 17.9983
v  -36.1024 30.8389 100.7904
v  -10.5624 49.0533 45.0324
v  -35.6130 30.8054 -101.0678
v  -0.3094 31.5773 109.9565
v  -1.1535 45.6719 107.3076
v  0.4386 31.8584 -110.9732
v  -1.2545 46.8600 -105.0805
v  295.0373 56.3812 -0.5690
v  321.5415 49.9962 84.7787
v  322.6785 49.5819 -85.5549
# 95 vertices

vn -0.0527 0.2926 -0.9548
vn -0.4739 0.2840 -0.8335
vn -0.1043 0.5863 -0.8034
vn -0.4737 0.2776 0.8358
vn -0.0643 0.3024 0.9510
vn -0.1052 0.5910 0.7998
vn 0.2417 -0.9571 -0.1600
vn 0.0505 -0.9987 -0.0107
vn -0.0599 -0.9982 0.0022
vn 0.0926 0.2357 -0.9674
vn 0.1407 0.0749 -0.9872
vn 0.3081 0.1415 -0.9408
vn 0.1412 0.0723 0.9873
vn 0.0911 0.2355 0.9676
vn 0.3159 0.0900 0.9445
vn 0.0704 -0.8787 0.4721
vn -0.8548 -0.5190 0.0002
vn -0.4597 -0.1219 -0.8797
vn -0.4693 -0.1104 0.8761
vn -0.0163 0.6931 0.7206
vn 0.0692 0.7071 0.7037
vn 0.0626 0.5664 0.8217
vn -0.1131 0.8462 0.5207
vn -0.1720 0.3776 0.9098
vn -0.4285 0.9035 -0.0067
vn 0.0726 0.7028 -0.7077
vn -0.0158 0.6912 -0.7225
vn 0.0587 0.5621 -0.8250
vn -0.1112 0.8461 -0.5213
vn -0.1706 0.3829 -0.9079
vn 0.1838 0.9830 -0.0004
vn -0.0060 0.2106 0.9776
vn 0.0436 0.3744 0.9262
vn -0.0175 0.2070 -0.9782
vn 0.0327 0.3675 -0.9295
vn -0.1028 0.8098 -0.5776
vn -0.2178 0.7875 -0.5766
vn -0.1029 0.8106 0.5765
vn -0.2196 0.7846 0.5799
vn 0.1909 0.6536 -0.7324
vn 0.2676 0.8626 -0.4293
vn 0.2383 0.7012 -0.6719
vn 0.2378 0.6950 0.6786
vn 0.2690 0.8684 0.4166
vn 0.1945 0.6608 0.7249
vn 0.1712 0.7220 -0.6704
vn 0.2946 0.7415 -0.6029
vn 0.2873 0.7424 0.6053
vn 0.1721 0.7243 0.6676
vn -0.1196 -0.5136 0.8496
vn -0.0608 0.7896 0.6106
vn 0.3877 0.9030 0.1851
vn 0.3391 0.8705 0.3567
vn -0.0913 -0.5124 -0.8539
vn 0.4573 0.8843 -0.0941
vn -0.0237 0.8084 -0.5882
vn 0.3353 0.8728 -0.3548
vn -0.0150 0.4726 0.8812
vn -0.0206 0.4751 -0.8797
vn 0.0342 -0.9994 0.0015
vn -0.2562 -0.8958 0.3633
vn -0.2355 -0.9025 -0.3607
vn -0.9297 0.3684 0.0018
vn -0.4598 0.8880 0.0034
vn 0.1506 0.4108 0.8992
vn 0.0949 0.5162 0.8512
vn 0.1528 0.4133 -0.8977
vn 0.0951 0.5139 -0.8526
vn -0.4231 -0.0500 0.9047
vn 0.1072 0.1842 0.9770
vn 0.1008 0.1967 -0.9753
vn -0.3994 -0.0293 -0.9163
vn 0.5065 0.8620 0.0195
vn 0.3189 0.9478 -0.0026
vn 0.2498 0.9683 -0.0020
vn -0.3992 -0.1816 0.8987
vn -0.3999 -0.1810 -0.8985
vn 0.4182 0.9084 0.0024
vn 0.5175 0.4202 0.7454
vn 0.8784 0.4779 -0.0039
vn 0.5142 0.4192 -0.7482
vn -0.3480 -0.8275 -0.4406
vn -0.3033 -0.9301 -0.2072
vn -0.2849 -0.9350 0.2114
vn -0.3475 -0.8259 0.4440
vn -0.6314 -0.4877 0.6029
vn 0.2560 -0.9545 0.1528
vn -0.6160 -0.4809 -0.6239
vn 0.5259 -0.5737 0.6280
vn 0.4786 0.5716 0.6665
vn 0.5279 -0.4962 -0.6893
vn 0.4750 0.6406 -0.6033
vn 0.9818 -0.1802 0.0592
vn 0.6984 -0.1028 0.7083
vn 0.6950 -0.1069 -0.7110
# 95 vertex normals

o Killer_whale
g Killer_whale
usemtl wire_134110008
s off
f 1//1 2//2 3//3 
f 4//4 5//5 6//6 
f 7//7 8//8 9//9 
f 10//10 11//11 12//12 
f 13//13 14//14 15//15 
f 9//9 8//8 16//16 
f 17//17 2//2 18//18 
f 4//4 17//17 19//19 
f 20//20 21//21 22//22 
f 23//23 24//24 25//25 
f 26//26 27//27 28//28 
f 29//29 25//25 30//30 
f 31//31 25//25 24//24 
f 31//31 32//32 33//33 
f 25//25 31//31 30//30 
f 34//34 31//31 35//35 
f 36//36 37//37 25//25 
f 38//38 25//25 39//39 
f 40//40 41//41 42//42 
f 43//43 44//44 45//45 
f 41//41 46//46 47//47 
f 44//44 48//48 49//49 
f 8//8 50//50 16//16 
f 51//51 52//52 53//53 
f 7//7 54//54 8//8 
f 55//55 56//56 57//57 
f 20//20 49//49 21//21 
f 58//58 5//5 14//14 
f 46//46 27//27 26//26 
f 59//59 10//10 1//1 
f 60//60 61//61 8//8 
f 62//62 60//60 8//8 
f 63//63 17//17 4//4 
f 39//39 25//25 64//64 
f 17//17 63//63 2//2 
f 25//25 37//37 64//64 
f 43//43 45//45 65//65 
f 66//66 49//49 20//20 
f 42//42 67//67 40//40 
f 68//68 27//27 46//46 
f 4//4 6//6 39//39 
f 64//64 4//4 39//39 
f 2//2 37//37 3//3 
f 2//2 64//64 37//37 
f 13//13 15//15 50//50 
f 51//51 53//53 43//43 
f 11//11 54//54 12//12 
f 57//57 56//56 42//42 
f 69//69 70//70 50//50 
f 8//8 61//61 50//50 
f 71//71 72//72 54//54 
f 62//62 8//8 54//54 
f 53//53 73//73 74//74 
f 48//48 44//44 75//75 
f 73//73 57//57 74//74 
f 75//75 41//41 47//47 
f 69//69 50//50 61//61 
f 61//61 76//76 69//69 
f 54//54 72//72 62//62 
f 72//72 77//77 62//62 
f 58//58 66//66 20//20 
f 39//39 6//6 38//38 
f 68//68 59//59 27//27 
f 3//3 37//37 36//36 
f 75//75 78//78 48//48 
f 79//79 80//80 31//31 
f 78//78 75//75 47//47 
f 31//31 80//80 81//81 
f 65//65 13//13 70//70 
f 70//70 13//13 50//50 
f 67//67 71//71 11//11 
f 71//71 54//54 11//11 
f 53//53 74//74 44//44 
f 44//44 43//43 53//53 
f 74//74 57//57 41//41 
f 57//57 42//42 41//41 
f 13//13 65//65 14//14 
f 66//66 58//58 14//14 
f 10//10 67//67 11//11 
f 59//59 68//68 10//10 
f 43//43 70//70 69//69 
f 43//43 65//65 70//70 
f 42//42 72//72 71//71 
f 67//67 42//42 71//71 
f 69//69 51//51 43//43 
f 69//69 76//76 51//51 
f 72//72 42//42 56//56 
f 72//72 56//56 77//77 
f 58//58 6//6 5//5 
f 20//20 6//6 58//58 
f 1//1 3//3 59//59 
f 3//3 27//27 59//59 
f 6//6 20//20 38//38 
f 20//20 22//22 23//23 
f 3//3 36//36 27//27 
f 27//27 29//29 28//28 
f 23//23 22//22 24//24 
f 32//32 31//31 24//24 
f 28//28 29//29 30//30 
f 31//31 34//34 30//30 
f 66//66 14//14 65//65 
f 49//49 66//66 65//65 
f 68//68 67//67 10//10 
f 46//46 67//67 68//68 
f 22//22 21//21 33//33 
f 48//48 78//78 79//79 
f 26//26 28//28 35//35 
f 78//78 47//47 81//81 
f 21//21 48//48 79//79 
f 49//49 48//48 21//21 
f 47//47 26//26 81//81 
f 46//46 26//26 47//47 
f 79//79 31//31 33//33 
f 21//21 79//79 33//33 
f 35//35 31//31 81//81 
f 26//26 35//35 81//81 
f 78//78 81//81 80//80 
f 78//78 80//80 79//79 
f 25//25 38//38 23//23 
f 38//38 20//20 23//23 
f 29//29 36//36 25//25 
f 27//27 36//36 29//29 
f 32//32 24//24 22//22 
f 22//22 33//33 32//32 
f 30//30 34//34 28//28 
f 28//28 34//34 35//35 
f 44//44 74//74 75//75 
f 74//74 41//41 75//75 
f 49//49 45//45 44//44 
f 65//65 45//45 49//49 
f 41//41 40//40 46//46 
f 46//46 40//40 67//67 
f 82//82 83//83 9//9 
f 9//9 84//84 85//85 
f 5//5 4//4 19//19 
f 16//16 50//50 15//15 
f 18//18 2//2 1//1 
f 12//12 54//54 7//7 
f 86//86 84//84 87//87 
f 87//87 84//84 9//9 
f 88//88 7//7 83//83 
f 83//83 7//7 9//9 
f 87//87 15//15 89//89 
f 15//15 19//19 90//90 
f 91//91 12//12 7//7 
f 12//12 92//92 18//18 
f 63//63 64//64 2//2 
f 63//63 4//4 64//64 
f 73//73 55//55 57//57 
f 53//53 52//52 73//73 
f 62//62 77//77 60//60 
f 60//60 76//76 61//61 
f 73//73 52//52 93//93 
f 93//93 94//94 60//60 
f 93//93 55//55 73//73 
f 95//95 93//93 60//60 
f 94//94 93//93 52//52 
f 94//94 52//52 51//51 
f 55//55 93//93 95//95 
f 55//55 95//95 56//56 
f 60//60 94//94 76//76 
f 51//51 76//76 94//94 
f 95//95 60//60 77//77 
f 95//95 77//77 56//56 
f 86//86 87//87 89//89 
f 86//86 90//90 19//19 
f 7//7 88//88 91//91 
f 92//92 88//88 18//18 
f 86//86 19//19 84//84 
f 85//85 84//84 19//19 
f 18//18 88//88 83//83 
f 18//18 83//83 82//82 
f 89//89 90//90 86//86 
f 89//89 15//15 90//90 
f 92//92 91//91 88//88 
f 91//91 92//92 12//12 
f 5//5 19//19 15//15 
f 14//14 5//5 15//15 
f 18//18 1//1 12//12 
f 1//1 10//10 12//12 
f 9//9 85//85 17//17 
f 85//85 19//19 17//17 
f 82//82 9//9 17//17 
f 17//17 18//18 82//82 
f 16//16 87//87 9//9 
f 87//87 16//16 15//15 
# 0 polygons - 186 triangles

