# 3ds Max Wavefront OBJ Exporter v0.97b - (c)2007 guruware
# File Created: 12.08.2018 17:14:40

mtllib Shark1.mtl

#
# object Shatk1
#

v  33.6379 52.9426 14.4051
v  0.0000 43.7833 16.3107
v  91.7330 55.6891 4.8491
v  37.7192 73.6907 5.2942
v  0.0000 79.3889 4.8422
v  0.0000 75.2397 11.1402
v  -85.4729 71.4922 15.2375
v  -66.1112 68.0486 20.2766
v  -62.0616 73.0722 16.6037
v  -118.4030 48.9756 -13.2804
v  -123.9464 45.2553 -7.4242
v  -138.5429 60.2752 -6.5422
v  37.4226 43.2586 -1.1079
v  50.3694 46.9898 -6.1305
v  91.0792 53.7678 1.4053
v  28.0969 65.6821 -13.6738
v  -0.0000 61.9342 -17.9833
v  -0.0000 70.4421 -15.2661
v  91.5993 59.8404 5.9189
v  91.2881 54.7591 -4.2680
v  0.0000 53.1201 18.3995
v  -31.0829 47.0176 20.4642
v  -112.8426 37.9895 -5.6047
v  -79.8090 36.3403 -12.8792
v  -77.1157 33.1712 -6.8020
v  -76.2201 72.6151 -15.8297
v  -104.3494 65.8913 -15.8204
v  -106.8758 69.7252 -10.2100
v  -36.7908 76.3355 13.1794
v  -32.4528 79.6257 5.8753
v  -76.1562 39.7636 -17.3288
v  -111.4774 40.0778 -9.4493
v  -106.0315 44.3275 -14.0860
v  -84.9271 64.0026 -20.3066
v  -53.5442 66.9591 -21.1317
v  -65.8938 56.8911 -22.8757
v  36.4802 73.5149 -6.3294
v  92.9946 64.0118 -4.1562
v  32.8940 70.4784 -10.5222
v  -36.6255 80.0350 -2.0509
v  -31.0994 79.8055 -6.0506
v  -52.4276 77.1267 -11.3190
v  116.2912 40.1734 -1.6394
v  92.1780 60.1671 -5.9531
v  106.3301 52.8659 -3.8532
v  92.2924 65.2381 -2.2869
v  -89.2233 54.4746 -20.3777
v  -122.2679 57.4698 -13.1896
v  33.2527 47.2190 -12.4204
v  39.9991 54.2651 -13.7684
v  -65.1830 46.8103 -21.7844
v  -91.7950 47.3544 -18.6129
v  -76.9628 75.9152 -7.8437
v  -115.1281 67.0515 10.9901
v  -92.3500 64.0030 19.1459
v  -0.0000 50.8650 -18.1395
v  -0.0000 43.1044 -16.4561
v  -42.0893 45.2513 -20.9430
v  -0.0000 39.0555 -13.2644
v  -49.1832 33.6263 -12.5774
v  -39.1966 38.4441 -17.6041
v  0.0000 83.1723 2.1113
v  23.6225 76.5652 -0.3899
v  -0.0000 80.9341 -2.1262
v  0.4055 94.6143 -0.2389
v  0.0000 109.7221 1.3555
v  -15.4283 85.2279 3.2202
v  -10.7367 91.1042 -2.2701
v  -28.1851 85.9434 -0.1345
v  -21.2289 91.1045 -2.1957
v  -3.0126 78.5720 -5.8612
v  -0.0000 74.9815 -11.4519
v  -44.9431 48.4538 -22.0764
v  -30.1400 47.1668 -20.5226
v  -27.9542 34.3051 -57.5808
v  106.8281 44.9957 2.3971
v  99.0913 51.3912 -2.3344
v  96.8491 54.5247 -4.7275
v  113.8964 39.0454 -1.3730
v  119.0011 50.7709 0.5496
v  120.2491 58.4371 0.0198
v  114.7656 68.8039 2.8920
v  70.2420 69.6001 -0.1258
v  92.4697 65.4348 1.4157
v  38.5181 70.5322 9.6558
v  93.2319 63.6771 4.5842
v  59.5238 71.0906 -1.1731
v  -107.7880 43.7068 5.6926
v  -52.5456 32.0940 9.6289
v  -53.9531 38.1248 17.5053
v  -82.9367 37.6484 14.1759
v  76.4596 61.2990 -7.8407
v  88.3587 58.6634 -6.3116
v  116.6468 41.1524 1.8749
v  96.9785 66.4452 -1.9616
v  105.3907 71.2542 1.4722
v  -45.5994 73.2282 -16.9832
v  71.8448 78.9803 0.0942
v  119.7074 52.1559 -0.2925
v  109.6901 61.7620 -3.3955
v  117.2146 80.4495 0.0227
v  104.3934 70.7581 -1.1815
v  106.7044 70.7921 -3.2108
v  126.9842 86.2455 -0.0270
v  109.7730 69.3246 -3.6442
v  141.2648 88.5130 -0.0242
v  123.7069 67.2734 0.0405
v  116.8408 67.9243 -2.2485
v  128.9333 78.8757 0.9695
v  55.9941 47.8214 5.2292
v  123.2455 79.8188 -1.5420
v  136.7405 89.9305 0.0070
v  109.1889 69.4028 3.6870
v  108.9455 71.9905 2.9202
v  27.8536 65.0418 13.9995
v  118.1982 44.0621 -1.4137
v  121.8265 45.1094 -0.1157
v  130.7183 28.2031 0.0564
v  113.7974 36.2394 -0.0870
v  -126.9567 59.4052 11.8326
v  -119.6153 50.8052 13.2264
v  -85.3037 52.6299 21.1473
v  91.8850 62.6639 -5.2539
v  0.0000 39.1230 13.1967
v  0.0000 34.9327 6.4890
v  -21.5251 31.5152 6.6687
v  -28.2526 34.8617 13.8063
v  -50.8803 56.1089 22.6927
v  -69.9157 61.1743 22.1871
v  -80.5807 32.7384 1.1346
v  -114.8606 37.8140 0.6010
v  -78.1784 33.8443 8.2761
v  -140.6129 59.1435 -2.4131
v  -127.2199 45.5764 -1.2122
v  -137.9400 56.2249 2.4014
v  -87.6645 74.3837 8.0121
v  -111.2507 69.9954 -0.0053
v  -106.9680 43.9290 13.8478
v  -114.5479 40.4803 8.5237
v  0.0000 60.9635 18.0836
v  -46.1813 64.1161 21.3687
v  -37.0790 71.4694 17.8433
v  -0.0000 34.4502 -4.3112
v  -21.8964 32.1080 -8.7062
v  -43.1380 29.9996 -2.2434
v  -83.8372 44.3701 18.9067
v  -61.9788 44.9712 21.0285
v  -65.2630 46.9212 21.4887
v  -62.4617 48.5659 21.9522
v  -122.1564 45.3686 9.1913
v  -133.9725 55.5094 7.5951
v  -0.8750 32.6612 -0.0112
v  0.0000 69.4304 15.9139
v  -138.4533 60.5888 5.4454
v  -64.5584 76.9321 9.7619
v  -61.8784 44.9235 -21.0240
v  -91.3495 74.3363 -1.5639
v  -69.6882 77.5418 -0.0483
v  -43.4760 48.4918 21.7883
v  -118.1127 39.9396 -1.7246
v  -31.1962 40.3407 18.1835
v  -0.0000 109.7522 -1.2570
v  -15.7398 99.7807 0.5618
v  -41.6117 36.6482 -49.1479
v  -25.7132 33.3898 -56.7491
v  -22.2634 90.1908 2.2585
v  -35.3972 34.1725 55.7627
v  -47.9469 44.9809 20.8682
v  -25.6674 34.7395 56.3488
v  -26.0291 33.4706 56.0058
v  129.7643 80.4404 -0.9352
v  -62.4069 48.5827 -22.0493
# 172 vertices

vn 0.1664 -0.4262 0.8892
vn 0.1187 0.8292 0.5463
vn -0.0876 0.6330 0.7692
vn -0.4967 -0.4387 -0.7489
vn 0.1974 -0.9589 -0.2036
vn 0.1049 0.3026 -0.9473
vn 0.1686 -0.2409 0.9558
vn 0.1912 -0.9681 -0.1621
vn 0.1071 -0.2171 0.9703
vn -0.1354 -0.9018 -0.4103
vn -0.1844 0.7708 -0.6098
vn 0.0200 0.9071 0.4205
vn -0.1772 -0.6130 -0.7700
vn -0.0469 0.2260 -0.9730
vn 0.1491 0.7359 -0.6605
vn -0.0816 0.9822 -0.1691
vn 0.0972 -0.0965 -0.9906
vn 0.1624 0.8519 -0.4979
vn -0.1122 0.0580 -0.9920
vn -0.2989 0.3600 -0.8838
vn 0.1743 -0.3434 -0.9229
vn -0.1167 -0.3946 -0.9114
vn -0.1570 0.9075 -0.3896
vn -0.2004 0.5916 0.7809
vn 0.0930 -0.2111 -0.9730
vn 0.0792 -0.7936 -0.6033
vn 0.1941 0.8674 -0.4582
vn 0.2654 -0.0941 0.9595
vn 0.1376 0.1314 -0.9817
vn -0.6199 0.6769 -0.3970
vn 0.0409 0.8506 -0.5242
vn 0.0199 0.3072 -0.9514
vn 0.1153 0.9405 -0.3196
vn 0.0669 0.0901 -0.9937
vn -0.0199 -0.2501 0.9680
vn -0.5707 -0.7158 -0.4025
vn 0.4475 -0.0110 0.8942
vn 0.1605 0.9478 -0.2754
vn 0.1879 0.9803 -0.0611
vn 0.1539 0.8135 0.5609
vn 0.1208 0.9647 -0.2340
vn 0.1044 0.8615 -0.4970
vn 0.1441 0.9717 -0.1871
vn 0.1616 0.9548 0.2493
vn 0.0843 0.3032 -0.9492
vn 0.0326 0.8314 -0.5547
vn -0.6316 0.7747 -0.0318
vn -0.0559 -0.7975 0.6007
vn -0.0018 -0.2137 -0.9769
vn 0.1447 0.0811 -0.9862
vn 0.1397 -0.0269 0.9898
vn -0.3951 0.8798 -0.2642
vn 0.1643 0.8788 0.4480
vn -0.3533 0.7794 0.5174
vn 0.0628 0.4941 -0.8671
vn -0.0710 0.5156 -0.8539
vn 0.1465 0.9803 0.1324
vn -0.0475 0.8390 0.5420
vn 0.0865 0.0141 -0.9962
vn 0.1313 0.1458 -0.9806
vn 0.3134 0.0202 -0.9494
vn -0.6058 0.7916 0.0797
vn -0.0255 0.2337 -0.9720
vn -0.0104 0.2632 -0.9647
vn 0.2865 -0.2397 -0.9276
vn 0.2673 -0.1960 0.9435
vn -0.5869 -0.8004 -0.1223
vn 0.1822 -0.9695 0.1641
vn -0.1045 0.2854 -0.9527
vn -0.1341 0.3464 0.9285
vn -0.2467 0.9683 -0.0396
vn -0.1644 0.7953 -0.5835
vn -0.0312 0.2813 0.9591
vn -0.0632 0.2781 0.9585
vn 0.1428 0.2705 0.9521
vn -0.0935 0.3624 0.9273
vn 0.1074 0.0140 -0.9941
vn 0.1290 -0.3041 -0.9439
vn 0.2976 0.1395 -0.9444
vn -0.0060 -0.2178 -0.9760
vn 0.4873 0.0010 0.8732
vn 0.2956 0.1459 -0.9441
vn 0.2567 0.1447 0.9556
vn -0.1303 -0.2914 -0.9477
vn -0.0633 -0.2914 0.9545
vn -0.1468 -0.2922 0.9450
vn -0.0654 -0.9972 -0.0371
vn -0.2232 -0.0326 0.9742
vn 0.1359 0.5202 -0.8432
vn 0.1313 0.1435 -0.9809
vn -0.0142 0.2681 -0.9633
vn 0.1383 0.2518 -0.9578
vn 0.2028 -0.8305 0.5188
vn 0.0257 -0.8956 0.4441
vn -0.2118 0.0406 0.9765
vn -0.0398 -0.0498 0.9980
vn -0.1437 -0.9828 -0.1163
vn -0.1845 -0.8871 0.4231
vn -0.7098 -0.7036 -0.0325
vn -0.2366 0.9562 0.1726
vn -0.2012 -0.2853 0.9371
vn -0.1876 -0.6808 0.7080
vn 0.1322 0.0860 0.9875
vn 0.0293 0.4024 0.9150
vn 0.1838 -0.8741 -0.4496
vn -0.0019 -0.9851 0.1722
vn -0.1992 -0.2894 0.9363
vn -0.0685 -0.5188 0.8522
vn -0.0950 -0.2763 0.9564
vn -0.0413 -0.0346 0.9985
vn -0.2988 -0.4748 0.8278
vn -0.4442 -0.3907 0.8062
vn 0.2250 -0.9735 0.0415
vn 0.0618 -0.9979 0.0198
vn 0.0553 0.8338 0.5493
vn 0.0683 0.3613 0.9299
vn -0.3307 0.9435 -0.0222
vn -0.2888 0.7249 -0.6254
vn -0.0741 0.9806 -0.1814
vn -0.0290 0.9177 0.3962
vn -0.0301 -0.6911 -0.7221
vn -0.0613 -0.4635 -0.8840
vn -0.2069 0.9755 0.0748
vn -0.0713 0.9925 0.0990
vn -0.2923 -0.6576 -0.6944
vn -0.1677 -0.4902 -0.8553
vn 0.0855 0.2473 0.9651
vn 0.0818 -0.0388 0.9959
vn -0.2239 0.9587 -0.1752
vn -0.1357 -0.9881 -0.0721
vn -0.1104 -0.9937 0.0187
vn -0.6618 -0.6810 -0.3135
vn -0.0752 -0.8975 -0.4346
vn -0.0807 -0.9927 -0.0894
vn 0.1381 -0.8404 0.5241
vn 0.0922 -0.3233 0.9418
vn -0.0696 0.9937 0.0880
vn -0.3070 0.3212 -0.8959
vn -0.0610 -0.9901 0.1263
vn -0.0851 -0.8672 0.4906
vn -0.4163 -0.2121 0.8842
vn -0.2966 0.9435 0.1480
vn -0.0254 -0.5347 -0.8447
vn 0.0757 -0.4130 -0.9076
vn -0.4786 -0.8736 -0.0878
vn 0.1347 -0.9206 0.3666
vn 0.0144 -0.9472 0.3204
vn 0.0109 -0.4366 -0.8996
vn -0.6331 0.7134 0.3004
vn 0.0324 0.3460 0.9377
vn 0.0964 0.1970 0.9757
vn 0.9993 -0.0320 0.0169
vn 0.0082 -0.1101 0.9939
vn -0.0806 -0.3555 0.9312
vn -0.4958 -0.8613 0.1116
vn 0.0617 -0.3236 0.9442
vn 0.0068 0.9303 0.3667
vn 0.1029 -0.9245 -0.3670
vn 0.1443 0.9427 0.3008
vn 0.0905 -0.1266 0.9878
vn -0.0477 -0.9509 -0.3058
vn 0.0678 -0.9926 -0.1008
vn -0.2205 0.9679 -0.1202
vn -0.2988 0.9420 -0.1530
vn -0.2418 0.4677 0.8502
vn -0.3388 0.6036 0.7217
vn -0.2030 0.0988 -0.9742
vn -0.2038 -0.3866 -0.8995
vn -0.0953 -0.9715 0.2172
vn 0.4481 0.8524 -0.2694
vn 0.1777 -0.0806 -0.9808
vn 0.2546 -0.0465 -0.9659
vn 0.0962 -0.4175 -0.9036
vn -0.2708 -0.3932 -0.8787
vn 0.0202 0.0837 -0.9963
vn 0.1435 -0.0152 0.9895
vn 0.2240 -0.0345 -0.9740
vn 0.1385 -0.0164 -0.9902
vn 0.1738 -0.3511 -0.9200
vn 0.1333 -0.1037 -0.9856
vn -0.0921 -0.5151 -0.8521
vn -0.0899 -0.6443 -0.7594
vn -0.4655 0.7176 -0.5181
vn -0.4213 0.8816 -0.2127
vn 0.1402 -0.0083 0.9901
vn 0.1386 -0.0238 0.9901
vn 0.3041 -0.1168 -0.9454
vn 0.2842 -0.1134 0.9520
vn -0.4023 0.6230 0.6708
vn -0.3649 0.7887 0.4947
vn 0.1792 -0.0308 -0.9833
vn 0.1170 0.0003 -0.9931
vn 0.2671 -0.1323 -0.9545
vn 0.1871 -0.0343 -0.9817
vn -0.3451 0.5879 0.7316
vn -0.2986 0.4963 -0.8152
vn 0.2125 -0.1727 0.9618
vn 0.0279 0.0671 0.9974
vn -0.5048 0.8628 0.0284
vn -0.4114 0.7896 -0.4553
vn -0.3278 0.7440 -0.5823
vn 0.1463 0.5495 -0.8226
vn 0.2595 0.0539 -0.9642
vn 0.3242 0.0508 0.9446
vn 0.0196 0.0845 -0.9962
vn 0.0895 0.0330 -0.9954
vn 0.1344 0.2818 -0.9500
vn 0.1151 -0.0559 -0.9918
vn 0.8365 -0.0989 0.5389
vn 0.5729 0.1923 0.7967
vn -0.0487 0.2559 -0.9655
vn 0.0837 0.0914 -0.9923
vn -0.0581 0.1121 0.9920
vn 0.0610 0.2702 0.9609
vn -0.1631 -0.5824 0.7964
vn -0.0835 -0.5810 0.8096
vn 0.0652 -0.6829 -0.7276
vn -0.0060 -0.9447 -0.3280
vn 0.0749 0.6331 0.7704
vn 0.1371 0.4369 0.8890
vn -0.1925 0.8895 0.4144
vn -0.0876 0.8536 0.5135
vn 0.1517 -0.9393 0.3078
vn 0.1378 -0.8400 0.5248
vn 0.9146 -0.4039 0.0180
vn 0.1687 -0.9218 -0.3492
vn 0.1974 -0.0605 -0.9784
vn -0.6242 0.7252 -0.2906
vn 0.1859 0.7557 -0.6279
vn 0.4876 0.5047 -0.7124
vn 0.1350 0.5799 0.8034
vn 0.2421 0.5679 0.7867
vn -0.1343 0.5605 -0.8172
vn -0.2095 0.1435 -0.9672
vn 0.0962 -0.6162 -0.7817
vn 0.1818 -0.8315 -0.5250
vn 0.0681 0.0749 -0.9949
vn -0.0941 -0.1137 -0.9890
vn -0.2194 -0.0895 -0.9715
vn -0.3977 -0.1713 -0.9014
vn -0.5343 0.8452 0.0098
vn 0.9996 0.0268 0.0003
vn 0.2065 -0.7802 -0.5905
vn 0.2007 -0.8712 -0.4481
vn -0.0659 -0.9660 -0.2499
vn -0.0787 0.8930 0.4432
vn -0.0438 -0.2491 0.9675
vn 0.9527 -0.2130 -0.2167
vn -0.2967 -0.9287 -0.2225
vn -0.1623 0.8510 -0.4994
vn -0.0422 0.5880 -0.8078
vn 0.0331 0.8415 -0.5393
vn -0.1002 0.9162 -0.3879
vn -0.0385 0.8008 -0.5977
vn -0.0071 0.0583 -0.9983
vn -0.0068 0.2716 -0.9624
vn 0.1012 -0.5527 0.8272
vn 0.1733 -0.5472 0.8189
vn -0.1215 0.0986 0.9877
vn -0.1196 0.5434 0.8309
vn 0.0864 0.0401 0.9955
vn 0.1322 0.1022 0.9859
vn -0.0137 -0.7951 0.6063
vn 0.1126 -0.5826 0.8049
vn 0.0063 0.9300 -0.3676
vn -0.0023 -0.0999 -0.9950
vn -0.0824 0.9882 -0.1293
vn -0.1854 0.9657 -0.1820
vn -0.0290 -0.8706 0.4912
vn -0.3537 -0.9191 -0.1736
vn 0.2254 -0.9733 0.0435
vn 0.2365 -0.9656 -0.1077
vn -0.0029 -0.9508 -0.3097
vn 0.0105 -0.4478 0.8941
vn -0.3980 0.9130 0.0903
vn -0.1413 -0.9366 0.3208
vn -0.6530 -0.7096 0.2646
vn -0.4503 -0.8763 -0.1712
vn 0.0680 0.6418 -0.7638
vn 0.1212 0.7518 -0.6481
vn -0.0791 -0.3298 0.9407
vn -0.7084 -0.6451 0.2864
vn -0.0705 -0.9974 0.0144
vn -0.6238 -0.7261 0.2891
vn -0.6138 0.5223 0.5919
vn -0.2577 0.3356 0.9061
vn -0.0021 0.5913 0.8065
vn 0.0606 0.6888 0.7224
vn 0.1982 -0.8794 0.4328
vn 0.1967 -0.8716 0.4490
vn -0.1180 0.9854 0.1229
vn -0.1304 0.9062 0.4022
vn -0.0645 -0.1674 0.9838
vn -0.4664 0.6154 0.6354
vn 0.1068 0.6313 0.7682
vn 0.1214 0.8144 0.5675
vn -0.4601 0.6266 -0.6290
vn -0.0250 -0.1093 -0.9937
vn 0.0360 -0.6119 0.7901
vn 0.0175 -0.4526 0.8915
vn -0.1466 -0.9689 0.1993
vn -0.0764 -0.9811 0.1776
vn 0.0931 -0.1221 -0.9881
vn 0.1431 -0.7516 -0.6439
vn 0.0085 0.6917 0.7222
vn -0.0433 0.8633 0.5028
vn 0.0149 0.1546 0.9879
vn 0.0785 0.1177 0.9900
vn 0.0000 0.2677 0.9635
vn -0.0889 0.3121 0.9459
vn 0.1318 0.3769 -0.9168
vn 0.1091 0.6395 -0.7611
vn -0.4897 -0.0640 0.8696
vn -0.8975 -0.3184 0.3052
vn -0.6298 -0.6727 0.3884
vn -0.7418 -0.4402 0.5060
vn 0.1694 -0.6101 -0.7740
vn 0.1433 -0.2098 -0.9672
vn -0.0616 -0.7660 -0.6399
vn -0.1581 -0.7156 -0.6804
vn 0.1180 0.0400 0.9922
vn 0.1140 -0.2169 0.9695
vn -0.1057 -0.9937 0.0377
vn -0.4245 0.9052 0.0180
vn 0.1051 0.2469 0.9633
vn 0.1311 0.4459 0.8854
vn -0.6414 -0.5948 -0.4846
vn -0.5081 0.8611 -0.0187
vn -0.5894 0.7291 0.3479
vn -0.3812 0.7290 -0.5685
vn -0.2035 -0.1657 -0.9650
vn -0.1200 -0.1978 -0.9729
vn -0.6100 -0.5851 -0.5344
vn -0.1552 -0.8439 -0.5135
vn 0.0021 0.1553 -0.9879
vn 0.1580 -0.0501 0.9862
vn 0.1577 0.9537 -0.2562
vn 0.0981 0.0066 -0.9952
vn -0.1409 0.9872 -0.0745
vn -0.1498 0.9873 0.0528
# 340 vertex normals

o Shatk1
g Shatk1
usemtl wire_028089177
s off
f 1//1 2//1 3//1 
f 4//2 5//2 6//2 
f 7//3 8//3 9//3 
f 10//4 11//4 12//4 
f 13//5 14//5 15//5 
f 16//6 17//6 18//6 
f 19//7 1//7 3//7 
f 15//8 14//8 20//8 
f 2//9 21//9 22//9 
f 23//10 24//10 25//10 
f 26//11 27//11 28//11 
f 29//12 5//12 30//12 
f 31//13 32//13 33//13 
f 34//14 35//14 36//14 
f 37//15 38//15 39//15 
f 40//16 41//16 42//16 
f 43//17 44//17 45//17 
f 46//18 38//18 37//18 
f 34//19 36//19 47//19 
f 48//20 12//20 27//20 
f 20//21 49//21 50//21 
f 51//22 31//22 52//22 
f 53//23 26//23 28//23 
f 7//24 54//24 55//24 
f 56//25 57//25 58//25 
f 59//26 60//26 61//26 
f 62//27 63//27 64//27 
f 65//28 66//28 67//28 
f 68//29 65//29 64//29 
f 69//30 70//30 41//30 
f 41//31 71//31 72//31 
f 70//32 71//32 41//32 
f 73//33 74//33 75//33 
f 35//34 17//34 36//34 
f 76//35 19//35 3//35 
f 77//36 78//36 79//36 
f 80//37 81//37 82//37 
f 37//38 83//38 46//38 
f 46//39 83//39 84//39 
f 4//40 85//40 86//40 
f 71//41 63//41 37//41 
f 72//42 71//42 37//42 
f 87//43 37//43 63//43 
f 83//44 4//44 84//44 
f 18//45 17//45 35//45 
f 41//46 72//46 42//46 
f 33//47 32//47 88//47 
f 89//48 90//48 91//48 
f 79//49 78//49 44//49 
f 92//50 93//50 50//50 
f 94//51 82//51 19//51 
f 95//52 84//52 96//52 
f 4//53 86//53 84//53 
f 86//54 96//54 84//54 
f 18//55 35//55 97//55 
f 26//56 35//56 34//56 
f 4//57 63//57 5//57 
f 63//58 4//58 98//58 
f 17//59 56//59 73//59 
f 92//60 50//60 17//60 
f 99//61 100//61 81//61 
f 96//62 101//62 102//62 
f 103//63 104//63 105//63 
f 44//64 103//64 105//64 
f 106//65 107//65 108//65 
f 107//66 109//66 82//66 
f 77//67 76//67 3//67 
f 15//68 110//68 13//68 
f 111//69 104//69 112//69 
f 113//70 112//70 104//70 
f 46//71 84//71 95//71 
f 38//72 46//72 95//72 
f 19//73 113//73 114//73 
f 113//74 104//74 114//74 
f 86//75 115//75 19//75 
f 19//76 114//76 86//76 
f 17//77 50//77 56//77 
f 50//78 49//78 56//78 
f 116//79 45//79 117//79 
f 44//80 43//80 79//80 
f 94//81 80//81 82//81 
f 118//82 116//82 117//82 
f 118//83 117//83 94//83 
f 119//84 43//84 118//84 
f 94//85 19//85 76//85 
f 118//86 94//86 119//86 
f 88//87 11//87 33//87 
f 120//88 121//88 122//88 
f 18//89 123//89 16//89 
f 92//90 17//90 16//90 
f 44//91 123//91 103//91 
f 123//92 92//92 16//92 
f 110//93 124//93 125//93 
f 126//94 127//94 89//94 
f 122//95 55//95 120//95 
f 122//96 128//96 129//96 
f 130//97 131//97 25//97 
f 132//98 91//98 131//98 
f 133//99 134//99 135//99 
f 54//100 136//100 137//100 
f 122//101 121//101 138//101 
f 91//102 138//102 139//102 
f 19//103 115//103 140//103 
f 8//104 141//104 142//104 
f 143//105 144//105 59//105 
f 145//106 126//106 89//106 
f 146//107 122//107 138//107 
f 146//108 90//108 147//108 
f 148//109 122//109 146//109 
f 149//110 128//110 122//110 
f 121//111 150//111 138//111 
f 151//112 150//112 121//112 
f 13//113 110//113 125//113 
f 152//114 126//114 145//114 
f 6//115 5//115 29//115 
f 142//116 141//116 153//116 
f 137//117 12//117 154//117 
f 28//118 27//118 12//118 
f 40//119 42//119 53//119 
f 29//120 30//120 155//120 
f 60//121 31//121 61//121 
f 156//122 31//122 51//122 
f 136//123 157//123 137//123 
f 30//124 158//124 155//124 
f 33//125 11//125 10//125 
f 52//126 31//126 33//126 
f 141//127 140//127 153//127 
f 128//128 159//128 21//128 
f 160//129 88//129 32//129 
f 131//130 23//130 25//130 
f 88//131 150//131 11//131 
f 11//132 134//132 133//132 
f 25//133 24//133 60//133 
f 130//134 25//134 145//134 
f 126//135 124//135 127//135 
f 22//136 161//136 2//136 
f 30//137 40//137 158//137 
f 162//138 69//138 163//138 
f 145//139 89//139 130//139 
f 132//140 89//140 91//140 
f 121//141 120//141 151//141 
f 54//142 137//142 154//142 
f 156//143 61//143 31//143 
f 58//144 57//144 61//144 
f 156//145 51//145 164//145 
f 74//146 58//146 165//146 
f 58//147 156//147 165//147 
f 58//148 61//148 156//148 
f 69//149 30//149 166//149 
f 67//150 30//150 5//150 
f 65//151 67//151 62//151 
f 62//152 64//152 65//152 
f 159//153 128//153 149//153 
f 147//154 148//154 146//154 
f 148//155 147//155 167//155 
f 22//156 168//156 161//156 
f 159//157 149//157 169//157 
f 168//158 22//158 170//158 
f 22//159 159//159 169//159 
f 22//160 21//160 159//160 
f 25//161 60//161 145//161 
f 152//162 145//162 144//162 
f 157//163 28//163 137//163 
f 137//164 28//164 12//164 
f 54//165 120//165 55//165 
f 154//166 120//166 54//166 
f 34//167 47//167 48//167 
f 52//168 33//168 10//168 
f 156//169 164//169 165//169 
f 75//170 74//170 165//170 
f 105//171 171//171 108//171 
f 45//172 100//172 99//172 
f 119//173 79//173 43//173 
f 77//174 79//174 119//174 
f 108//175 171//175 106//175 
f 109//176 112//176 113//176 
f 45//177 105//177 100//177 
f 45//178 44//178 105//178 
f 20//179 50//179 93//179 
f 78//180 93//180 44//180 
f 20//181 93//181 78//181 
f 77//182 20//182 78//182 
f 103//183 102//183 104//183 
f 38//184 95//184 103//184 
f 82//185 109//185 113//185 
f 82//186 113//186 19//186 
f 81//187 108//187 107//187 
f 81//188 107//188 82//188 
f 114//189 101//189 96//189 
f 114//190 96//190 86//190 
f 43//191 45//191 116//191 
f 118//192 43//192 116//192 
f 100//193 108//193 81//193 
f 100//194 105//194 108//194 
f 114//195 104//195 101//195 
f 102//196 101//196 104//196 
f 107//197 106//197 109//197 
f 106//198 112//198 109//198 
f 95//199 96//199 102//199 
f 103//200 95//200 102//200 
f 123//201 38//201 103//201 
f 38//202 123//202 39//202 
f 45//203 99//203 117//203 
f 117//204 80//204 94//204 
f 171//205 112//205 106//205 
f 111//206 112//206 171//206 
f 123//207 44//207 92//207 
f 93//208 92//208 44//208 
f 80//209 99//209 81//209 
f 117//210 99//210 80//210 
f 105//211 104//211 111//211 
f 105//212 111//212 171//212 
f 66//213 166//213 67//213 
f 67//214 166//214 30//214 
f 91//215 146//215 138//215 
f 146//216 91//216 90//216 
f 144//217 60//217 59//217 
f 145//218 60//218 144//218 
f 6//219 142//219 153//219 
f 85//220 115//220 86//220 
f 54//221 7//221 136//221 
f 155//222 7//222 9//222 
f 152//223 125//223 126//223 
f 125//224 124//224 126//224 
f 125//225 152//225 143//225 
f 152//226 144//226 143//226 
f 68//227 162//227 65//227 
f 162//228 70//228 69//228 
f 64//229 63//229 71//229 
f 71//230 68//230 64//230 
f 67//231 5//231 62//231 
f 62//232 5//232 63//232 
f 26//233 34//233 27//233 
f 48//234 27//234 34//234 
f 57//235 59//235 61//235 
f 20//236 14//236 49//236 
f 17//237 73//237 36//237 
f 47//238 36//238 51//238 
f 47//239 10//239 48//239 
f 12//240 48//240 10//240 
f 163//241 66//241 162//241 
f 65//242 162//242 66//242 
f 14//243 59//243 49//243 
f 143//244 59//244 14//244 
f 147//245 170//245 167//245 
f 149//246 167//246 169//246 
f 167//247 170//247 169//247 
f 170//248 22//248 169//248 
f 165//249 164//249 75//249 
f 172//250 75//250 164//250 
f 97//251 35//251 26//251 
f 42//252 72//252 97//252 
f 42//253 26//253 53//253 
f 42//254 97//254 26//254 
f 70//255 162//255 68//255 
f 70//256 68//256 71//256 
f 124//257 2//257 127//257 
f 3//258 2//258 124//258 
f 122//259 129//259 55//259 
f 7//260 55//260 8//260 
f 21//261 140//261 128//261 
f 140//262 1//262 19//262 
f 127//263 90//263 89//263 
f 127//264 2//264 161//264 
f 172//265 73//265 75//265 
f 172//266 36//266 73//266 
f 158//267 40//267 53//267 
f 157//268 53//268 28//268 
f 77//269 3//269 15//269 
f 15//270 20//270 77//270 
f 143//271 13//271 125//271 
f 13//272 143//272 14//272 
f 147//273 168//273 170//273 
f 147//274 90//274 168//274 
f 139//275 88//275 160//275 
f 131//276 91//276 139//276 
f 131//277 139//277 160//277 
f 160//278 23//278 131//278 
f 72//279 18//279 97//279 
f 37//280 39//280 72//280 
f 119//281 94//281 76//281 
f 76//282 77//282 119//282 
f 150//283 134//283 11//283 
f 135//284 134//284 150//284 
f 69//285 166//285 163//285 
f 66//286 163//286 166//286 
f 9//287 8//287 142//287 
f 29//288 142//288 6//288 
f 110//289 3//289 124//289 
f 3//290 110//290 15//290 
f 155//291 158//291 136//291 
f 136//292 7//292 155//292 
f 149//293 122//293 148//293 
f 149//294 148//294 167//294 
f 6//295 153//295 85//295 
f 6//296 85//296 4//296 
f 51//297 172//297 164//297 
f 51//298 36//298 172//298 
f 127//299 161//299 90//299 
f 168//300 90//300 161//300 
f 130//301 132//301 131//301 
f 89//302 132//302 130//302 
f 74//303 73//303 56//303 
f 56//304 58//304 74//304 
f 29//305 9//305 142//305 
f 155//306 9//306 29//306 
f 128//307 141//307 129//307 
f 140//308 141//308 128//308 
f 129//309 141//309 8//309 
f 8//310 55//310 129//310 
f 39//311 123//311 18//311 
f 39//312 18//312 72//312 
f 120//313 154//313 151//313 
f 135//314 154//314 133//314 
f 151//315 135//315 150//315 
f 154//316 135//316 151//316 
f 57//317 49//317 59//317 
f 49//318 57//318 56//318 
f 24//319 31//319 60//319 
f 24//320 32//320 31//320 
f 21//321 1//321 140//321 
f 2//322 1//322 21//322 
f 138//323 150//323 88//323 
f 138//324 88//324 139//324 
f 153//325 140//325 115//325 
f 153//326 115//326 85//326 
f 12//327 11//327 133//327 
f 154//328 12//328 133//328 
f 40//329 30//329 69//329 
f 69//330 41//330 40//330 
f 10//331 47//331 52//331 
f 52//332 47//332 51//332 
f 160//333 32//333 23//333 
f 23//334 32//334 24//334 
f 63//335 98//335 87//335 
f 98//336 4//336 83//336 
f 37//337 87//337 83//337 
f 83//338 87//338 98//338 
f 158//339 53//339 157//339 
f 136//340 158//340 157//340 
# 340 faces

