# 3ds Max Wavefront OBJ Exporter v0.97b - (c)2007 guruware
# File Created: 12.08.2018 16:19:12

mtllib Dori.mtl

#
# object Dori
#

v  23.9748 27.2402 -4.7839
v  22.1028 19.0541 -3.7896
v  4.5739 21.5640 -6.3956
v  -27.4836 34.2795 -4.3906
v  -25.9057 29.0901 -5.6492
v  -34.3468 27.9950 -4.0334
v  -3.8016 49.5148 1.0441
v  -21.5925 49.7623 -0.0313
v  -20.6365 47.3469 2.1158
v  23.9609 27.2371 4.7856
v  4.5548 21.5568 6.3964
v  22.1521 19.1164 3.7951
v  -27.4939 34.3038 4.3778
v  -34.3409 27.9897 4.0362
v  -25.8189 29.1153 5.6643
v  -15.9367 8.1894 -2.0776
v  -27.2647 13.7980 -3.3076
v  -19.9541 11.9571 -4.4284
v  -15.9645 8.1824 2.0594
v  -20.0211 11.9614 4.4150
v  -27.2689 13.8061 3.3144
v  5.4565 29.7190 -6.6004
v  -23.9768 22.2387 -6.1507
v  -31.8375 20.9534 -4.9213
v  12.6459 37.6697 4.6709
v  26.1554 42.4290 0.7646
v  9.4484 46.1885 2.1039
v  37.6299 44.8252 -0.0314
v  39.0289 34.2451 -0.0314
v  26.9911 41.9943 -0.7158
v  -31.8301 20.9489 4.9228
v  -24.0378 22.3799 6.1283
v  5.4740 29.7324 6.5985
v  -12.8338 7.1923 -0.0313
v  5.1722 7.4288 -0.0313
v  -4.9213 9.1177 3.8878
v  -4.9248 9.1436 -3.9052
v  12.6760 37.6506 -4.6730
v  9.4698 46.1843 -2.1034
v  -3.7984 49.5125 -1.0458
v  -20.6530 47.4021 -2.0833
v  39.5831 29.5823 0.7752
v  34.3187 23.7279 1.4314
v  39.5284 29.5693 -0.7761
v  34.0590 23.4717 -1.4653
v  -9.2128 14.4567 5.8888
v  4.4767 12.8178 4.8100
v  -22.2064 23.4360 7.2489
v  -9.0870 14.5060 -5.8961
v  4.4882 12.8472 -4.8149
v  -22.1314 23.5867 -7.3021
v  22.4893 33.5646 4.5754
v  22.4867 33.5573 -4.5767
v  -11.3317 9.3800 4.0178
v  -17.5524 18.9978 8.2221
v  -11.2938 9.3842 -4.0254
v  -17.6164 18.9572 -8.1664
v  7.3880 9.7835 -2.7911
v  7.5206 9.7317 2.7262
v  29.3291 17.2187 -0.0314
v  39.4684 28.0488 -0.0314
v  18.1655 12.7526 2.2361
v  14.4162 10.0699 -0.0313
v  20.7568 12.3782 -0.1950
v  17.6723 12.5597 -2.2518
v  27.2811 17.3892 1.9561
v  27.3749 17.4536 -1.9498
v  58.5315 24.2464 -0.0314
v  49.3988 43.3395 0.5801
v  49.5298 43.4213 -0.5651
v  -17.6219 23.1300 8.7576
v  -5.9024 25.4485 7.0436
v  -7.0147 31.3265 6.7286
v  -23.9877 38.5992 4.2594
v  -17.8748 27.3395 8.4125
v  -17.5223 23.2409 -8.6799
v  -7.0176 31.3651 -6.7242
v  -6.0100 25.4059 -7.0418
v  -18.0515 27.7840 -8.3560
v  -23.9906 38.5687 -4.2894
v  -23.7717 16.4837 -5.2239
v  -31.6400 16.5548 -3.0923
v  -31.4176 19.3031 -3.9919
v  -23.7507 16.6243 5.2688
v  -31.4426 19.3012 3.9843
v  -31.6394 16.5530 3.0923
v  -11.8255 36.8559 5.7102
v  -9.3671 46.5010 3.0170
v  -0.1129 38.1799 5.3292
v  -11.5108 37.2254 -5.6474
v  -9.3229 46.5417 -3.0005
v  0.1613 38.1563 -5.3232
v  -30.5280 41.2141 -2.5132
v  -30.5329 41.2327 2.5075
v  -39.2050 21.9184 2.0218
v  -36.4912 19.4698 -0.0313
v  -40.8374 25.6739 1.7574
v  -34.6698 35.5950 2.4336
v  -37.4589 34.1145 -0.0313
v  -39.1650 21.9091 -2.0410
v  -40.8359 25.6709 -1.7585
v  -34.6613 35.5915 -2.4387
v  -31.7760 41.9103 -0.0313
v  12.2286 59.2071 -0.0313
v  -2.5729 57.7106 0.6076
v  18.7821 56.1352 -0.0313
v  17.1586 46.2068 0.7377
v  -36.7759 22.9437 3.3402
v  -36.7757 22.9420 -3.3403
v  1.6604 49.7371 0.4117
v  -5.5971 20.5225 6.7114
v  -5.5730 20.4549 -6.7053
v  -8.0002 62.6302 -0.0313
v  8.8741 53.0783 -0.6002
v  -29.5513 13.3010 -0.0313
v  -35.2087 17.3957 -0.0313
v  17.1716 46.2013 -0.7931
v  1.7061 49.7364 -0.7983
v  13.4199 3.7936 -0.0313
v  7.7293 6.3652 0.2294
v  -38.9362 23.9952 -0.0313
v  -38.2588 28.3199 -2.4242
v  -38.2554 28.3249 2.4252
v  -23.4231 10.3495 -0.0313
v  51.3269 49.3707 -0.0314
v  -21.1116 20.5781 7.8201
v  -21.2704 20.5945 -7.7271
v  -27.4228 38.9796 4.4635
v  -27.3846 38.9829 -4.4624
v  -19.2140 25.8338 10.5627
v  -19.2584 26.0229 -10.6196
v  -20.1075 31.3561 9.9586
v  -19.8137 27.4342 9.8817
v  -15.1730 23.3837 12.3200
v  -20.1460 31.2086 -10.0761
v  -14.9554 22.8342 -12.3578
v  -19.3303 27.5075 -9.9984
v  -20.3944 31.4928 9.0773
v  -20.2788 31.6754 -9.0150
v  -40.6221 23.0373 -0.0313
v  -17.5553 34.2406 10.3024
v  -17.6508 35.1226 -10.0498
v  -16.6026 29.3409 12.0498
v  -16.6091 29.0947 -12.1682
v  -41.6804 25.4266 -0.0313
# 145 vertices

vn 0.1937 -0.0381 -0.9803
vn 0.1893 -0.2432 -0.9513
vn 0.0792 -0.1090 -0.9909
vn -0.2163 0.1234 -0.9685
vn -0.2608 0.0977 -0.9605
vn -0.2869 0.1078 -0.9519
vn 0.0193 0.7736 0.6333
vn -0.3156 0.9489 -0.0055
vn -0.1388 0.4888 0.8613
vn 0.1943 -0.0374 0.9802
vn 0.0791 -0.1092 0.9909
vn 0.1895 -0.2407 0.9519
vn -0.2123 0.1225 0.9695
vn -0.2867 0.1079 0.9519
vn -0.2583 0.0993 0.9610
vn -0.2136 -0.8761 -0.4322
vn -0.3527 -0.6260 -0.6955
vn -0.2170 -0.5530 -0.8044
vn -0.2141 -0.8781 0.4279
vn -0.2191 -0.5539 0.8032
vn -0.3538 -0.6262 0.6948
vn 0.0634 0.0720 -0.9954
vn -0.4126 -0.1135 -0.9038
vn -0.2361 -0.2831 -0.9296
vn 0.0991 0.2599 0.9606
vn 0.1214 0.1887 0.9745
vn 0.1095 0.4809 0.8699
vn 0.8719 0.4898 -0.0027
vn 0.2021 0.9793 -0.0124
vn 0.1206 0.1833 -0.9756
vn -0.2319 -0.2851 0.9300
vn -0.4075 -0.1079 0.9068
vn 0.0636 0.0723 0.9954
vn -0.0524 -0.9986 -0.0052
vn 0.1375 -0.9905 -0.0082
vn 0.0284 -0.6686 0.7431
vn 0.0283 -0.6640 -0.7472
vn 0.1005 0.2606 -0.9602
vn 0.1094 0.4472 -0.8877
vn 0.0110 0.7099 -0.7042
vn -0.1375 0.4860 -0.8631
vn 0.1304 -0.1098 0.9854
vn 0.4809 -0.3999 0.7803
vn 0.1316 -0.1031 -0.9859
vn 0.4759 -0.3956 -0.7855
vn 0.0693 -0.2867 0.9555
vn 0.1034 -0.3282 0.9389
vn 0.7921 0.4053 0.4563
vn 0.0674 -0.2837 -0.9565
vn 0.1031 -0.3255 -0.9399
vn 0.8368 0.3148 -0.4479
vn 0.1751 0.1898 0.9661
vn 0.1730 0.1915 -0.9661
vn -0.0292 -0.6231 0.7816
vn -0.0626 -0.2720 0.9603
vn -0.0281 -0.6227 -0.7819
vn -0.0670 -0.2656 -0.9618
vn 0.1804 -0.6649 -0.7248
vn 0.1788 -0.6712 0.7194
vn 0.6353 -0.7723 -0.0040
vn 0.5460 -0.8373 -0.0292
vn 0.3073 -0.6556 0.6898
vn 0.0374 -0.2384 0.9704
vn 0.2125 -0.4213 -0.8817
vn 0.2483 -0.6248 -0.7403
vn 0.3784 -0.5250 0.7624
vn 0.3789 -0.5036 -0.7764
vn 0.7717 -0.6360 -0.0017
vn -0.0202 0.0892 0.9958
vn -0.0129 0.0778 -0.9969
vn -0.0634 -0.0093 0.9979
vn 0.0851 0.0037 0.9964
vn 0.0518 0.1450 0.9881
vn -0.1085 0.2591 0.9597
vn -0.0982 0.1434 0.9848
vn -0.0510 -0.0138 -0.9986
vn 0.0529 0.1430 -0.9883
vn 0.0840 0.0034 -0.9965
vn -0.1004 0.1415 -0.9848
vn -0.1125 0.2614 -0.9586
vn -0.2786 -0.3001 -0.9123
vn -0.4879 -0.4871 -0.7243
vn -0.3272 -0.4005 -0.8559
vn -0.2820 -0.2965 0.9124
vn -0.3287 -0.4009 0.8551
vn -0.4905 -0.4889 0.7214
vn 0.0201 0.2486 0.9684
vn -0.0086 0.4247 0.9053
vn 0.0380 0.2449 0.9688
vn 0.0190 0.2510 -0.9678
vn -0.0080 0.4272 -0.9041
vn 0.0393 0.2450 -0.9687
vn -0.4593 0.5053 -0.7305
vn -0.4628 0.5100 0.7251
vn -0.7567 -0.2167 0.6168
vn -0.6223 -0.7828 -0.0055
vn -0.5279 -0.2987 0.7950
vn -0.5345 0.3475 0.7704
vn -0.8573 0.5148 -0.0071
vn -0.7502 -0.2239 -0.6222
vn -0.5261 -0.2948 -0.7977
vn -0.5301 0.3451 -0.7745
vn -0.7242 0.6895 -0.0070
vn 0.3499 0.9368 -0.0035
vn -0.0054 0.0639 0.9979
vn 0.4501 0.8930 -0.0034
vn 0.0783 0.2106 0.9744
vn -0.4955 -0.0308 0.8680
vn -0.4941 -0.0309 -0.8689
vn 0.0225 0.2702 0.9625
vn 0.0875 -0.1238 0.9884
vn 0.0851 -0.1229 -0.9888
vn -0.4048 0.9141 -0.0239
vn 0.0127 0.0626 -0.9980
vn -0.5109 -0.8597 -0.0038
vn -0.7828 -0.6223 -0.0048
vn 0.0938 0.2169 -0.9717
vn 0.0029 0.2628 -0.9648
vn 0.2715 -0.9623 -0.0153
vn -0.2707 -0.5105 0.8162
vn -0.9992 0.0373 -0.0145
vn -0.4236 0.0737 -0.9029
vn -0.4242 0.0721 0.9027
vn -0.4199 -0.9075 -0.0080
vn 0.2308 0.9730 -0.0037
vn -0.3536 -0.2018 0.9134
vn -0.3578 -0.2094 -0.9100
vn -0.0543 0.3686 0.9280
vn -0.0536 0.3754 -0.9253
vn -0.5503 -0.1001 0.8290
vn -0.5529 -0.1052 -0.8266
vn -0.7036 0.3059 0.6413
vn 0.5920 -0.0068 -0.8059
vn 0.6731 -0.6482 0.3562
vn -0.7250 0.2653 -0.6356
vn 0.6614 -0.6672 -0.3425
vn 0.5584 -0.0132 0.8295
vn -0.5250 0.4958 -0.6918
vn -0.5109 0.4721 0.7184
vn -0.9740 0.2263 -0.0087
vn 0.2816 0.9587 -0.0390
vn 0.2202 0.9726 0.0750
vn 0.3895 0.2373 0.8899
vn 0.3299 0.2199 -0.9180
vn -0.9513 -0.3083 -0.0060
# 145 vertex normals

o Dori
g Dori
usemtl wire_224198087
s off
f 1//1 2//2 3//3 
f 4//4 5//5 6//6 
f 7//7 8//8 9//9 
f 10//10 11//11 12//12 
f 13//13 14//14 15//15 
f 16//16 17//17 18//18 
f 19//19 20//20 21//21 
f 1//1 3//3 22//22 
f 5//5 23//23 24//24 
f 25//25 26//26 27//27 
f 28//28 29//29 30//30 
f 15//15 31//31 32//32 
f 10//10 33//33 11//11 
f 34//34 35//35 36//36 
f 35//35 34//34 37//37 
f 38//38 39//39 30//30 
f 40//40 41//41 8//8 
f 42//42 10//10 43//43 
f 44//44 45//45 1//1 
f 46//46 47//47 11//11 
f 15//15 32//32 48//48 
f 49//49 3//3 50//50 
f 5//5 51//51 23//23 
f 25//25 52//52 26//26 
f 52//52 29//29 26//26 
f 38//38 30//30 53//53 
f 53//53 30//30 29//29 
f 19//19 54//54 20//20 
f 20//20 54//54 55//55 
f 16//16 18//18 56//56 
f 18//18 57//57 56//56 
f 35//35 37//37 58//58 
f 35//35 59//59 36//36 
f 43//43 60//60 61//61 
f 60//60 62//62 63//63 
f 45//45 61//61 60//60 
f 64//64 35//35 65//65 
f 60//60 66//66 62//62 
f 12//12 11//11 47//47 
f 64//64 65//65 67//67 
f 2//2 50//50 3//3 
f 1//1 29//29 44//44 
f 10//10 42//42 29//29 
f 43//43 61//61 42//42 
f 42//42 68//68 69//69 
f 45//45 44//44 61//61 
f 44//44 70//70 68//68 
f 44//44 29//29 70//70 
f 42//42 69//69 29//29 
f 71//71 72//72 73//73 
f 9//9 74//74 75//75 
f 76//76 77//77 78//78 
f 41//41 79//79 80//80 
f 81//81 82//82 83//83 
f 84//84 85//85 86//86 
f 87//87 88//88 75//75 
f 89//89 27//27 88//88 
f 90//90 79//79 91//91 
f 92//92 91//91 39//39 
f 41//41 93//93 8//8 
f 9//9 8//8 94//94 
f 95//95 96//96 85//85 
f 97//97 98//98 99//99 
f 100//100 83//83 96//96 
f 101//101 99//99 102//102 
f 15//15 48//48 75//75 
f 13//13 15//15 75//75 
f 5//5 79//79 51//51 
f 4//4 79//79 5//5 
f 98//98 94//94 99//99 
f 94//94 8//8 103//103 
f 102//102 99//99 93//93 
f 93//93 103//103 8//8 
f 28//28 26//26 29//29 
f 104//104 105//105 106//106 
f 26//26 107//107 27//27 
f 106//106 105//105 26//26 
f 88//88 9//9 75//75 
f 88//88 7//7 9//9 
f 91//91 79//79 41//41 
f 91//91 41//41 40//40 
f 88//88 87//87 89//89 
f 33//33 52//52 25//25 
f 91//91 92//92 90//90 
f 22//22 38//38 53//53 
f 68//68 42//42 61//61 
f 68//68 61//61 44//44 
f 31//31 14//14 108//108 
f 31//31 15//15 14//14 
f 24//24 109//109 6//6 
f 24//24 6//6 5//5 
f 88//88 27//27 7//7 
f 110//110 27//27 107//107 
f 111//111 55//55 46//46 
f 111//111 71//71 55//55 
f 112//112 49//49 57//57 
f 112//112 57//57 76//76 
f 8//8 113//113 114//114 
f 8//8 105//105 113//113 
f 73//73 33//33 89//89 
f 33//33 73//73 72//72 
f 77//77 92//92 22//22 
f 22//22 78//78 77//77 
f 19//19 21//21 115//115 
f 86//86 85//85 96//96 
f 16//16 115//115 17//17 
f 82//82 96//96 83//83 
f 10//10 29//29 52//52 
f 52//52 33//33 10//10 
f 1//1 53//53 29//29 
f 53//53 1//1 22//22 
f 115//115 116//116 82//82 
f 115//115 86//86 116//116 
f 20//20 84//84 21//21 
f 84//84 20//20 55//55 
f 18//18 17//17 81//81 
f 81//81 57//57 18//18 
f 62//62 12//12 47//47 
f 59//59 47//47 36//36 
f 65//65 50//50 2//2 
f 58//58 37//37 50//50 
f 30//30 39//39 117//117 
f 106//106 30//30 114//114 
f 46//46 55//55 54//54 
f 46//46 36//36 47//47 
f 49//49 56//56 57//57 
f 49//49 50//50 37//37 
f 91//91 40//40 39//39 
f 118//118 117//117 39//39 
f 46//46 11//11 111//111 
f 33//33 72//72 11//11 
f 49//49 112//112 3//3 
f 22//22 3//3 78//78 
f 35//35 64//64 119//119 
f 59//59 35//35 63//63 
f 120//120 119//119 60//60 
f 35//35 119//119 120//120 
f 60//60 63//63 120//120 
f 63//63 35//35 120//120 
f 60//60 119//119 64//64 
f 67//67 60//60 64//64 
f 66//66 12//12 62//62 
f 12//12 43//43 10//10 
f 67//67 65//65 2//2 
f 2//2 1//1 45//45 
f 121//121 101//101 122//122 
f 121//121 123//123 97//97 
f 123//123 121//121 108//108 
f 108//108 95//95 31//31 
f 122//122 109//109 121//121 
f 109//109 24//24 100//100 
f 19//19 124//124 34//34 
f 36//36 19//19 34//34 
f 16//16 34//34 124//124 
f 37//37 34//34 16//16 
f 121//121 109//109 100//100 
f 121//121 95//95 108//108 
f 99//99 103//103 93//93 
f 99//99 94//94 103//103 
f 69//69 125//125 29//29 
f 125//125 69//69 68//68 
f 70//70 29//29 125//125 
f 125//125 68//68 70//70 
f 104//104 113//113 105//105 
f 104//104 114//114 113//113 
f 123//123 98//98 97//97 
f 98//98 14//14 13//13 
f 122//122 101//101 102//102 
f 102//102 4//4 6//6 
f 126//126 32//32 84//84 
f 84//84 32//32 85//85 
f 81//81 23//23 127//127 
f 81//81 83//83 23//23 
f 85//85 31//31 95//95 
f 32//32 31//31 85//85 
f 83//83 100//100 24//24 
f 23//23 83//83 24//24 
f 63//63 62//62 59//59 
f 47//47 59//59 62//62 
f 35//35 58//58 65//65 
f 50//50 65//65 58//58 
f 75//75 48//48 71//71 
f 71//71 73//73 75//75 
f 79//79 76//76 51//51 
f 76//76 79//79 77//77 
f 126//126 55//55 71//71 
f 126//126 84//84 55//55 
f 127//127 76//76 57//57 
f 57//57 81//81 127//127 
f 110//110 8//8 7//7 
f 110//110 7//7 27//27 
f 118//118 40//40 8//8 
f 118//118 39//39 40//40 
f 123//123 108//108 14//14 
f 123//123 14//14 98//98 
f 122//122 6//6 109//109 
f 122//122 102//102 6//6 
f 98//98 128//128 94//94 
f 74//74 9//9 94//94 
f 102//102 93//93 129//129 
f 80//80 93//93 41//41 
f 74//74 94//94 128//128 
f 98//98 13//13 128//128 
f 80//80 129//129 93//93 
f 102//102 129//129 4//4 
f 13//13 75//75 74//74 
f 74//74 128//128 13//13 
f 4//4 80//80 79//79 
f 80//80 4//4 129//129 
f 28//28 30//30 106//106 
f 28//28 106//106 26//26 
f 71//71 48//48 126//126 
f 130//130 32//32 126//126 
f 131//131 127//127 23//23 
f 76//76 127//127 51//51 
f 33//33 25//25 89//89 
f 25//25 27//27 89//89 
f 22//22 92//92 38//38 
f 38//38 92//92 39//39 
f 132//132 32//32 130//130 
f 126//126 133//133 134//134 
f 135//135 131//131 23//23 
f 127//127 136//136 137//137 
f 82//82 116//116 96//96 
f 86//86 96//96 116//116 
f 126//126 48//48 133//133 
f 138//138 48//48 32//32 
f 127//127 137//137 51//51 
f 139//139 23//23 51//51 
f 95//95 121//121 140//140 
f 140//140 96//96 95//95 
f 100//100 140//140 121//121 
f 140//140 100//100 96//96 
f 130//130 126//126 134//134 
f 133//133 141//141 134//134 
f 131//131 136//136 127//127 
f 136//136 142//142 137//137 
f 143//143 141//141 132//132 
f 134//134 141//141 143//143 
f 144//144 135//135 142//142 
f 144//144 142//142 136//136 
f 87//87 75//75 73//73 
f 89//89 87//87 73//73 
f 90//90 77//77 79//79 
f 92//92 77//77 90//90 
f 16//16 124//124 115//115 
f 19//19 115//115 124//124 
f 132//132 130//130 143//143 
f 134//134 143//143 130//130 
f 135//135 144//144 131//131 
f 136//136 131//131 144//144 
f 110//110 107//107 105//105 
f 8//8 110//110 105//105 
f 8//8 114//114 118//118 
f 118//118 114//114 117//117 
f 133//133 138//138 141//141 
f 133//133 48//48 138//138 
f 137//137 139//139 51//51 
f 142//142 139//139 137//137 
f 138//138 132//132 141//141 
f 138//138 32//32 132//132 
f 142//142 135//135 139//139 
f 139//139 135//135 23//23 
f 107//107 26//26 105//105 
f 117//117 114//114 30//30 
f 36//36 54//54 19//19 
f 46//46 54//54 36//36 
f 37//37 16//16 56//56 
f 49//49 37//37 56//56 
f 43//43 66//66 60//60 
f 12//12 66//66 43//43 
f 45//45 60//60 67//67 
f 2//2 45//45 67//67 
f 111//111 11//11 72//72 
f 72//72 71//71 111//111 
f 112//112 78//78 3//3 
f 78//78 112//112 76//76 
f 115//115 21//21 86//86 
f 84//84 86//86 21//21 
f 115//115 82//82 17//17 
f 81//81 17//17 82//82 
f 145//145 121//121 97//97 
f 145//145 97//97 99//99 
f 145//145 101//101 121//121 
f 145//145 99//99 101//101 
f 106//106 114//114 104//104 
# 0 polygons - 286 triangles

